<?xml version="1.0" encoding="utf-8"?>
<!-- Generator: Adobe Illustrator 21.0.2, SVG Export Plug-In . SVG Version: 6.00 Build 0)  -->
<svg version="1.1" id="Calque_1" xmlns="http://www.w3.org/2000/svg" xmlns:xlink="http://www.w3.org/1999/xlink" x="0px" y="0px"
	 viewBox="0 0 30 43.3" style="enable-background:new 0 0 30 43.3;" xml:space="preserve">
<style type="text/css">
	.st0{fill:url(#SVGID_1_);}
	.st1{fill:url(#SVGID_2_);}
	.st2{fill:url(#SVGID_3_);}
	.st3{fill:none;stroke:url(#SVGID_4_);stroke-width:1.5;stroke-miterlimit:10;}
	.st4{fill:url(#SVGID_5_);}
	.st5{fill:url(#SVGID_6_);}
	.st6{fill:url(#SVGID_7_);}
	.st7{fill:url(#SVGID_8_);}
	.st8{fill:url(#SVGID_9_);}
	.st9{fill:url(#SVGID_10_);}
	.st10{fill:url(#SVGID_11_);}
	.st11{fill:url(#SVGID_12_);}
	.st12{fill:url(#SVGID_13_);}
	.st13{fill:url(#SVGID_14_);}
	.st14{fill:url(#SVGID_15_);}
	.st15{fill:url(#SVGID_16_);}
	.st16{fill:url(#SVGID_17_);}
	.st17{fill:url(#SVGID_18_);}
	.st18{fill:url(#SVGID_19_);}
	.st19{fill:url(#SVGID_20_);}
	.st20{fill:url(#SVGID_21_);}
	.st21{fill:#87DFF3;}
	.st22{fill:#B4F1F9;}
	.st23{fill:url(#SVGID_22_);}
	.st24{fill:url(#SVGID_23_);}
	.st25{fill:url(#SVGID_24_);}
	.st26{fill:url(#SVGID_25_);}
	.st27{fill:url(#SVGID_26_);}
</style>
<linearGradient id="SVGID_1_" gradientUnits="userSpaceOnUse" x1="-267.5574" y1="35.3259" x2="-267.5574" y2="2.7073">
	<stop  offset="0" style="stop-color:#D7FFFF"/>
	<stop  offset="1" style="stop-color:#5DD0EF"/>
</linearGradient>
<path class="st0" d="M-254.3,15.9c0-7.5-6.3-13.6-13.9-13.2c-6.8,0.3-12.4,5.9-12.7,12.6c-0.1,3.4,1,6.7,3.2,9.2
	c2.1,2.4,3.2,5.7,3.2,9.2v0.6c0,0.6,0.4,1,1,1h11.7c0.6,0,1-0.4,1-1v-0.7c0-3.3,1.2-6.5,3.5-9.4C-255.4,21.9-254.3,19-254.3,15.9z
	 M-262.7,33.3h-9.7c-0.1-3.8-1.4-7.4-3.7-10.1c-1.9-2.2-2.8-5-2.7-7.8c0.3-5.8,5-10.5,10.7-10.8c6.5-0.3,11.8,4.9,11.8,11.3
	c0,2.6-0.9,5-2.5,7.1C-261.3,26.1-262.7,29.7-262.7,33.3z"/>
<linearGradient id="SVGID_2_" gradientUnits="userSpaceOnUse" x1="-267.4043" y1="39.6259" x2="-267.4043" y2="37.6259">
	<stop  offset="0" style="stop-color:#D7FFFF"/>
	<stop  offset="1" style="stop-color:#5DD0EF"/>
</linearGradient>
<path class="st1" d="M-261.8,37.6h-11.3c-0.6,0-1,0.4-1,1s0.4,1,1,1h11.3c0.6,0,1-0.4,1-1S-261.2,37.6-261.8,37.6z"/>
<linearGradient id="SVGID_3_" gradientUnits="userSpaceOnUse" x1="-267.4043" y1="43.3259" x2="-267.4043" y2="41.3259">
	<stop  offset="0" style="stop-color:#D7FFFF"/>
	<stop  offset="1" style="stop-color:#5DD0EF"/>
</linearGradient>
<path class="st2" d="M-263.8,41.3h-7.3c-0.6,0-1,0.4-1,1s0.4,1,1,1h7.3c0.6,0,1-0.4,1-1S-263.2,41.3-263.8,41.3z"/>
<linearGradient id="SVGID_4_" gradientUnits="userSpaceOnUse" x1="-267.7578" y1="33.3983" x2="-267.7578" y2="14.0312">
	<stop  offset="0" style="stop-color:#D7FFFF"/>
	<stop  offset="1" style="stop-color:#5DD0EF"/>
</linearGradient>
<path class="st3" d="M-267.7,33.4c0.1-5.9,0-11.8-0.3-17.7c1.5,1.2,2.9,2.7,3.6,4.5c0.7,1.8,0.6,4-0.6,5.5c-0.9,1.2-2.3,1.9-3,3.2
	c-2.3-1.5-3.9-4.4-3.2-7c0.5-2.1,2.2-3.8,2.7-5.8"/>
<linearGradient id="SVGID_5_" gradientUnits="userSpaceOnUse" x1="-210.0217" y1="32.8168" x2="-210.0217" y2="23.8177">
	<stop  offset="0" style="stop-color:#D7FFFF"/>
	<stop  offset="1" style="stop-color:#5DD0EF"/>
</linearGradient>
<path class="st4" d="M-211.5,29.4v1.9c0,0.8,0.7,1.5,1.5,1.5s1.5-0.7,1.5-1.5v-1.9c0.9-0.5,1.5-1.5,1.5-2.6c0-1.7-1.3-3-3-3
	c-1.7,0-3,1.3-3,3C-213,27.9-212.4,28.9-211.5,29.4z"/>
<g>
	<g>
		<linearGradient id="SVGID_6_" gradientUnits="userSpaceOnUse" x1="-209.5634" y1="19.6845" x2="-209.5634" y2="3.1873">
			<stop  offset="0" style="stop-color:#D7FFFF"/>
			<stop  offset="1" style="stop-color:#5DD0EF"/>
		</linearGradient>
		<path class="st5" d="M-202.5,13.7C-202.5,13.7-202.6,13.7-202.5,13.7l0-1.5c-0.1-4.7-3.7-7-7-7c-3.3,0-7,2.3-7,7v6
			c0,0.8-0.1,1.5-0.9,1.5c-0.8,0-1.1-0.7-1.1-1.5v-5.6c0-4.8,3.6-9,8.4-9.3c5.2-0.3,9.6,3.8,9.6,9v1.4c0,0,0,0,0,0L-202.5,13.7z"/>
	</g>
</g>
<linearGradient id="SVGID_7_" gradientUnits="userSpaceOnUse" x1="-153.7889" y1="41.1105" x2="-153.7889" y2="7.9501">
	<stop  offset="0" style="stop-color:#D7FFFF"/>
	<stop  offset="1" style="stop-color:#5DD0EF"/>
</linearGradient>
<path class="st6" d="M-142.6,17.2c0-0.2-0.1-0.4-0.2-0.5l-7.4-8.5c-0.1-0.1-0.3-0.2-0.5-0.2h-12.1c-1.8,0-2.2,0.6-2.2,2.6v27.9
	c0,2,0.4,2.6,2.2,2.6h17.9c1.8,0,2.2-0.6,2.2-2.6V17.2z M-150.4,10.9l5.4,6.2l-4,0c-0.5,0-1.3-0.8-1.3-1.4L-150.4,10.9z
	 M-145.8,38.7h-15.9c-1.1,0-1,0-1-1.2V12.6c0-1.2-0.1-2.2,0.9-2.2h9.7v5.3c0,1.4,1.9,3.1,3.1,3.1h4.3v18.7
	C-144.8,38.7-144.7,38.7-145.8,38.7z"/>
<linearGradient id="SVGID_8_" gradientUnits="userSpaceOnUse" x1="-151.8456" y1="25.3463" x2="-151.8456" y2="23.8924">
	<stop  offset="0" style="stop-color:#D7FFFF"/>
	<stop  offset="1" style="stop-color:#5DD0EF"/>
</linearGradient>
<path class="st7" d="M-147.5,23.9h-8.7c-0.4,0-0.6,0.3-0.6,0.7s0.3,0.7,0.6,0.7h8.7c0.4,0,0.6-0.3,0.6-0.7S-147.1,23.9-147.5,23.9z"
	/>
<linearGradient id="SVGID_9_" gradientUnits="userSpaceOnUse" x1="-160.0703" y1="25.7098" x2="-160.0703" y2="23.5288">
	<stop  offset="0" style="stop-color:#D7FFFF"/>
	<stop  offset="1" style="stop-color:#5DD0EF"/>
</linearGradient>
<path class="st8" d="M-160.1,23.5c-0.5,0-1,0.5-1,1.1s0.4,1.1,1,1.1l0,0h0c0.5,0,1-0.5,1-1.1C-159.1,24-159.5,23.5-160.1,23.5
	C-160.1,23.5-160.1,23.5-160.1,23.5z"/>
<linearGradient id="SVGID_10_" gradientUnits="userSpaceOnUse" x1="-151.8452" y1="30.0716" x2="-151.8452" y2="28.6177">
	<stop  offset="0" style="stop-color:#D7FFFF"/>
	<stop  offset="1" style="stop-color:#5DD0EF"/>
</linearGradient>
<path class="st9" d="M-147.5,28.6h-8.7c-0.4,0-0.6,0.3-0.6,0.7c0,0.4,0.3,0.7,0.6,0.7h8.7c0.4,0,0.6-0.3,0.6-0.7
	S-147.1,28.6-147.5,28.6z"/>
<linearGradient id="SVGID_11_" gradientUnits="userSpaceOnUse" x1="-160.0698" y1="30.4351" x2="-160.0698" y2="28.254">
	<stop  offset="0" style="stop-color:#D7FFFF"/>
	<stop  offset="1" style="stop-color:#5DD0EF"/>
</linearGradient>
<path class="st10" d="M-160.1,28.3c-0.5,0-1,0.5-1,1.1c0,0.6,0.4,1.1,1,1.1h0c0.5,0,1-0.5,1-1.1C-159.1,28.7-159.5,28.3-160.1,28.3
	C-160.1,28.3-160.1,28.3-160.1,28.3z"/>
<linearGradient id="SVGID_12_" gradientUnits="userSpaceOnUse" x1="-151.8456" y1="34.7968" x2="-151.8456" y2="33.3429">
	<stop  offset="0" style="stop-color:#D7FFFF"/>
	<stop  offset="1" style="stop-color:#5DD0EF"/>
</linearGradient>
<path class="st11" d="M-147.5,33.3h-8.7c-0.4,0-0.6,0.3-0.6,0.7s0.3,0.7,0.6,0.7h8.7c0.4,0,0.6-0.3,0.6-0.7S-147.1,33.3-147.5,33.3z
	"/>
<linearGradient id="SVGID_13_" gradientUnits="userSpaceOnUse" x1="-160.0703" y1="35.1603" x2="-160.0703" y2="32.9793">
	<stop  offset="0" style="stop-color:#D7FFFF"/>
	<stop  offset="1" style="stop-color:#5DD0EF"/>
</linearGradient>
<path class="st12" d="M-160.1,33c-0.5,0-1,0.5-1,1.1s0.4,1.1,1,1.1l0,0h0c0.5,0,1-0.5,1-1.1C-159.1,33.5-159.5,33-160.1,33
	C-160.1,33-160.1,33-160.1,33z"/>
<linearGradient id="SVGID_14_" gradientUnits="userSpaceOnUse" x1="-98.4069" y1="41.1105" x2="-98.4069" y2="-9.094947e-13">
	<stop  offset="0" style="stop-color:#D7FFFF"/>
	<stop  offset="1" style="stop-color:#5DD0EF"/>
</linearGradient>
<path class="st13" d="M-87.1,13.3L-93.8,9c0.4-0.9,0.5-1.8,0.5-2.8c0-3.4-2.3-6.2-5.1-6.2c-2.8,0-5.1,2.8-5.1,6.2
	c0,1,0.2,1.9,0.5,2.8l-6.7,4.3c-0.2,0.2-0.4,0.4-0.4,0.7v26.3c0,0.4,0.4,0.8,0.8,0.8h21.5c0.4,0,0.8-0.4,0.8-0.8V14
	C-86.9,13.6-86.9,13.4-87.1,13.3z M-101.5,6.1c0-2.3,1.4-4.1,3.2-4.1c1.8,0,3.2,1.9,3.2,4.1c0,0.6-0.1,1.2-0.3,1.7l-2.5-1.6
	c-0.2-0.1-0.5-0.1-0.8,0l-2.5,1.6C-101.4,7.2-101.5,6.6-101.5,6.1z M-88.8,38.7h-18.9V14.8l6.5-4.2l0,0l0,0l3-2l2.3,1.5
	c-0.2,0.3-0.5,0.5-0.7,0.7c-0.4-0.3-1-0.5-1.5-0.5c-0.8,0-1.4,0.4-1.9,0.9c-0.1,0.1-0.1,0.1-0.2,0.2c-0.3,0.4-0.5,0.9-0.5,1.5
	c0,1.4,1.1,2.6,2.6,2.6s2.6-1.1,2.6-2.6c0-0.3-0.1-0.6-0.2-0.8c0.4-0.3,0.8-0.7,1.1-1.1l5.9,3.8L-88.8,38.7L-88.8,38.7z M-97.2,12.3
	c0,0.6-0.5,1.1-1.1,1.1s-1.1-0.5-1.1-1.1c0-0.1,0-0.1,0-0.2c0.3,0.1,0.7,0.2,1.1,0.2s0.7-0.1,1.1-0.2
	C-97.2,12.3-97.2,12.3-97.2,12.3z"/>
<g>
	<linearGradient id="SVGID_15_" gradientUnits="userSpaceOnUse" x1="-98.5504" y1="32.4013" x2="-98.5504" y2="22.6338">
		<stop  offset="0" style="stop-color:#D7FFFF"/>
		<stop  offset="1" style="stop-color:#5DD0EF"/>
	</linearGradient>
	<path class="st14" d="M-104.1,25.1c0-1.4,1-2.5,2.5-2.5c1.5,0,2.5,1.1,2.5,2.5c0,1.4-1,2.5-2.5,2.5S-104.1,26.5-104.1,25.1z
		 M-96.1,22.7h1.8l-6.7,9.5h-1.8L-96.1,22.7z M-100.8,25.1c0-0.6-0.3-1-0.8-1c-0.5,0-0.8,0.3-0.8,1c0,0.6,0.3,1,0.8,1
		C-101.2,26.1-100.8,25.7-100.8,25.1z M-98,29.9c0-1.4,1-2.5,2.5-2.5c1.5,0,2.5,1.1,2.5,2.5c0,1.4-1,2.5-2.5,2.5
		C-97,32.4-98,31.3-98,29.9z M-94.7,29.9c0-0.6-0.4-1-0.8-1c-0.5,0-0.8,0.3-0.8,1c0,0.6,0.3,1,0.8,1C-95,30.9-94.7,30.6-94.7,29.9z"
		/>
</g>
<linearGradient id="SVGID_16_" gradientUnits="userSpaceOnUse" x1="-36.7573" y1="33.0545" x2="-36.7573" y2="5.0725">
	<stop  offset="0" style="stop-color:#D7FFFF"/>
	<stop  offset="1" style="stop-color:#5DD0EF"/>
</linearGradient>
<path class="st15" d="M-36.7,33.1c-7.7,0-14-6.3-14-14c0-7,5.3-13,12.2-13.9c0.4-0.1,0.8,0.2,0.9,0.5c0.2,0.4,0.1,0.8-0.2,1.1
	c-2.1,1.8-3.4,4.5-3.4,7.3c0,5.3,4.3,9.5,9.5,9.5c2.8,0,5.4-1.2,7.3-3.4c0.3-0.3,0.7-0.4,1.1-0.2c0.4,0.2,0.6,0.5,0.5,0.9
	C-23.7,27.8-29.7,33.1-36.7,33.1z M-41,7.6c-4.7,1.8-7.9,6.3-7.9,11.4c0,6.7,5.5,12.2,12.2,12.2c5.2,0,9.7-3.3,11.4-7.9
	c-1.9,1.3-4.1,2-6.4,2c-6.3,0-11.4-5.1-11.4-11.4C-43,11.6-42.3,9.4-41,7.6z"/>
<linearGradient id="SVGID_17_" gradientUnits="userSpaceOnUse" x1="-30.7842" y1="16.3459" x2="-30.7842" y2="10.1322">
	<stop  offset="0" style="stop-color:#D7FFFF"/>
	<stop  offset="1" style="stop-color:#5DD0EF"/>
</linearGradient>
<path class="st16" d="M-30.7,10.2l0.9,1.9l2.1,0.3c0.1,0,0.1,0.1,0.1,0.2l-1.6,1.5l0.3,2c0,0.1-0.1,0.3-0.3,0.2l-1.8-1l-1.8,1
	c-0.1,0.1-0.3,0-0.3-0.2l0.3-2l-1.5-1.4c-0.1-0.1,0-0.3,0.1-0.3l2-0.3l0.9-1.9C-30.9,10.1-30.7,10.1-30.7,10.2z"/>
<linearGradient id="SVGID_18_" gradientUnits="userSpaceOnUse" x1="-58.4457" y1="22.5506" x2="-58.4457" y2="16.1779">
	<stop  offset="0" style="stop-color:#D7FFFF"/>
	<stop  offset="1" style="stop-color:#5DD0EF"/>
</linearGradient>
<path class="st17" d="M-58.4,16.2l1,2c0,0,0,0,0.1,0l2.2,0.3c0.1,0,0.1,0.1,0,0.1l-1.6,1.5c0,0,0,0,0,0.1l0.4,2.2
	c0,0.1-0.1,0.1-0.1,0.1l-1.9-1c0,0-0.1,0-0.1,0l-1.9,1c-0.1,0-0.1,0-0.1-0.1l0.4-2.2c0,0,0-0.1,0-0.1l-1.6-1.5c0,0,0-0.1,0-0.1
	l2.2-0.3c0,0,0,0,0.1,0l1-2C-58.5,16.2-58.4,16.2-58.4,16.2z"/>
<linearGradient id="SVGID_19_" gradientUnits="userSpaceOnUse" x1="-49.136" y1="40.0351" x2="-49.136" y2="30.2306">
	<stop  offset="0" style="stop-color:#D7FFFF"/>
	<stop  offset="1" style="stop-color:#5DD0EF"/>
</linearGradient>
<path class="st18" d="M-49.1,30.3l1.5,3.1c0,0,0,0,0.1,0l3.4,0.5c0.1,0,0.1,0.1,0,0.1l-2.5,2.4c0,0,0,0,0,0.1l0.6,3.4
	c0,0.1-0.1,0.1-0.1,0.1l-3.1-1.6c0,0-0.1,0-0.1,0l-3.1,1.6c-0.1,0-0.1,0-0.1-0.1l0.6-3.4c0,0,0-0.1,0-0.1l-2.5-2.4c0,0,0-0.1,0-0.1
	l3.4-0.5c0,0,0,0,0.1,0l1.5-3.1C-49.2,30.2-49.1,30.2-49.1,30.3z"/>
<linearGradient id="SVGID_20_" gradientUnits="userSpaceOnUse" x1="15.831" y1="41.1103" x2="15.831" y2="4.7403">
	<stop  offset="0" style="stop-color:#D7FFFF"/>
	<stop  offset="1" style="stop-color:#5DD0EF"/>
</linearGradient>
<path class="st19" d="M27.3,17.2c-0.2-0.4-0.6-0.6-1-0.6h-8.2l6-10.3c0.2-0.3,0.2-0.7,0-1.1s-0.5-0.5-0.9-0.5H11.1
	c-0.5,0-0.9,0.3-1,0.7L4.3,22.6c-0.1,0.3-0.1,0.7,0.1,1C4.7,23.8,5,24,5.4,24H14L9.3,39.7c-0.1,0.5,0.1,1,0.6,1.3
	c0.2,0.1,0.3,0.1,0.5,0.1c0.3,0,0.7-0.2,0.9-0.5l15.9-22.3C27.4,18,27.4,17.6,27.3,17.2z M13.2,34.2l3.2-11c0.1-0.3,0-0.7-0.2-0.9
	c-0.2-0.3-0.5-0.4-0.9-0.4H6.9l5-14.9h9.5l-6,10.3c-0.2,0.3-0.2,0.7,0,1.1c0.2,0.3,0.5,0.5,0.9,0.5h8L13.2,34.2z"/>
<g>
	<g>
		<linearGradient id="SVGID_21_" gradientUnits="userSpaceOnUse" x1="70.6008" y1="34.7216" x2="70.6008" y2="7.5354">
			<stop  offset="0" style="stop-color:#D7FFFF"/>
			<stop  offset="1" style="stop-color:#5DD0EF"/>
		</linearGradient>
		<path class="st20" d="M78.9,27.9c-0.1,0.1-0.2,0.2-0.3,0.3C78.7,28.1,78.8,28,78.9,27.9c-0.6,0.8-1.3,1.5-2.1,2.1
			c0.1-0.1,0.2-0.2,0.3-0.2c-0.7,0.6-1.5,1-2.3,1.4c0.1-0.1,0.2-0.1,0.4-0.2c-0.8,0.3-1.6,0.6-2.5,0.7c0.1,0,0.3,0,0.4-0.1
			c-0.9,0.1-1.7,0.1-2.6,0c0.1,0,0.3,0,0.4,0.1c-0.9-0.1-1.7-0.3-2.5-0.7c0.1,0.1,0.2,0.1,0.4,0.2c-0.8-0.3-1.6-0.8-2.3-1.3
			c0.1,0.1,0.2,0.2,0.3,0.2c-0.8-0.6-1.5-1.3-2.1-2.1c0.1,0.1,0.2,0.2,0.2,0.3c-0.6-0.8-1.2-1.8-1.6-2.7c0.1,0.1,0.1,0.2,0.2,0.4
			c-0.4-1.1-0.7-2.2-0.9-3.3c0,0.1,0,0.3,0.1,0.4c-0.2-1.2-0.2-2.4,0-3.6c0,0.1,0,0.3-0.1,0.4c0.2-1.1,0.5-2.3,0.9-3.3
			c-0.1,0.1-0.1,0.2-0.2,0.4c0.4-1,0.9-1.9,1.6-2.7c-0.1,0.1-0.2,0.2-0.2,0.3c0.6-0.8,1.3-1.5,2.1-2.1c-0.1,0.1-0.2,0.2-0.3,0.2
			c0.7-0.5,1.5-1,2.3-1.3c-0.1,0.1-0.2,0.1-0.4,0.2c0.8-0.3,1.6-0.6,2.5-0.7c-0.1,0-0.3,0-0.4,0.1c0.9-0.1,1.7-0.1,2.6,0
			c-0.1,0-0.3,0-0.4-0.1c0.9,0.1,1.7,0.3,2.5,0.7c-0.1-0.1-0.2-0.1-0.4-0.2c0.8,0.4,1.6,0.8,2.3,1.4c-0.1-0.1-0.2-0.2-0.3-0.2
			c0.8,0.6,1.4,1.3,2,2c-0.1-0.1-0.2-0.2-0.2-0.3c0.1,0.1,0.2,0.2,0.3,0.3c0.2,0.3,0.5,0.6,0.9,0.7c0.4,0.1,0.9,0.1,1.2-0.2
			c0.3-0.2,0.6-0.5,0.7-0.9c0.1-0.4,0.1-0.9-0.2-1.2c-1.3-1.8-3-3.4-5-4.3c-0.6-0.2-1.1-0.5-1.7-0.6c-0.6-0.2-1.2-0.3-1.8-0.3
			c-1-0.1-2.1-0.1-3.1,0.1C68,8,66.2,8.8,64.7,10c-1.5,1.2-2.8,2.7-3.7,4.4c-1,1.9-1.5,3.9-1.6,6.1c-0.1,1.1,0,2.2,0.2,3.3
			c0.1,0.9,0.4,1.8,0.7,2.7c0.7,1.9,1.8,3.6,3.2,5c1.4,1.3,3.1,2.4,5,2.9c2,0.6,4.2,0.6,6.2,0c2.1-0.6,4.1-1.8,5.6-3.4
			c0.4-0.4,0.8-0.9,1.1-1.4c0.2-0.3,0.3-0.8,0.2-1.2c-0.1-0.4-0.4-0.7-0.7-0.9c-0.4-0.2-0.8-0.3-1.2-0.2c-0.1,0.1-0.2,0.1-0.4,0.2
			C79.2,27.5,79,27.7,78.9,27.9L78.9,27.9z"/>
	</g>
</g>
<g>
	<g>
		<path class="st21" d="M55.5,19.5c0.6,0,1.1,0,1.7,0c1.4,0,2.7,0,4.1,0c1.6,0,3.3,0,4.9,0c1.4,0,2.8,0,4.2,0c0.7,0,1.4,0,2.1,0
			c0,0,0,0,0,0c0.4,0,0.8-0.2,1.1-0.4c0.3-0.3,0.5-0.7,0.4-1.1c0-0.4-0.1-0.8-0.4-1.1c-0.3-0.3-0.7-0.4-1.1-0.4c-0.6,0-1.1,0-1.7,0
			c-1.4,0-2.7,0-4.1,0c-1.6,0-3.3,0-4.9,0c-1.4,0-2.8,0-4.2,0c-0.7,0-1.4,0-2.1,0c0,0,0,0,0,0c-0.4,0-0.8,0.2-1.1,0.4
			c-0.3,0.3-0.5,0.7-0.4,1.1c0,0.4,0.1,0.8,0.4,1.1C54.7,19.3,55.1,19.5,55.5,19.5L55.5,19.5z"/>
	</g>
</g>
<g>
	<g>
		<path class="st22" d="M72.6,22.8c-0.6,0-1.1,0-1.7,0c-1.4,0-2.7,0-4.1,0c-1.6,0-3.3,0-4.9,0c-1.4,0-2.8,0-4.2,0
			c-0.7,0-1.4,0-2.1,0c0,0,0,0,0,0c-0.4,0-0.8,0.2-1.1,0.4c-0.3,0.3-0.5,0.7-0.4,1.1c0,0.4,0.1,0.8,0.4,1.1c0.3,0.3,0.7,0.4,1.1,0.4
			c0.6,0,1.1,0,1.7,0c1.4,0,2.7,0,4.1,0c1.6,0,3.3,0,4.9,0c1.4,0,2.8,0,4.2,0c0.7,0,1.4,0,2.1,0c0,0,0,0,0,0c0.4,0,0.8-0.2,1.1-0.4
			c0.3-0.3,0.5-0.7,0.4-1.1c0-0.4-0.1-0.8-0.4-1.1C73.3,23,73,22.8,72.6,22.8L72.6,22.8z"/>
	</g>
</g>
<g>
	<linearGradient id="SVGID_22_" gradientUnits="userSpaceOnUse" x1="132.2561" y1="26.3725" x2="132.2561" y2="15.7665">
		<stop  offset="0" style="stop-color:#D7FFFF"/>
		<stop  offset="1" style="stop-color:#5DD0EF"/>
	</linearGradient>
	<path class="st23" d="M135.2,24.8c0,0.5,0,1,0,1.5c-1.2,0.4-3.5-0.4-4.7-1.9c-1.4-1.7-1.5-4.2-0.3-6.1c1.2-1.9,3.5-2.7,5.1-2.4
		c0,0.5,0,1,0,1.5c-1.2-0.1-2.3,0.2-3.2,1.1c-0.5,0.5-0.9,1.2-0.9,1.8c1,0,2,0,3,0c0,0.5,0,1,0,1.6c-1,0-2,0-3,0
		C131.3,23.6,132.9,24.7,135.2,24.8z"/>
	<linearGradient id="SVGID_23_" gradientUnits="userSpaceOnUse" x1="123.1878" y1="26.3703" x2="123.1878" y2="15.7658">
		<stop  offset="0" style="stop-color:#D7FFFF"/>
		<stop  offset="1" style="stop-color:#5DD0EF"/>
	</linearGradient>
	<path class="st24" d="M126.1,15.8c0,0.5,0,1,0,1.5c-1.4-0.1-2.5,0.3-3.4,1.3c-0.6,0.8-0.9,1.6-0.9,2.6c0.1,1.8,1.6,3.7,4.3,3.5
		c0,0.5,0,1,0,1.5c-1.5,0.3-3.7-0.4-5-2.3c-1.2-1.8-1.2-4.2,0-6C122.4,16.2,124.7,15.5,126.1,15.8z"/>
</g>
<linearGradient id="SVGID_24_" gradientUnits="userSpaceOnUse" x1="127.7127" y1="37.7807" x2="127.7127" y2="4.3576">
	<stop  offset="0" style="stop-color:#D7FFFF"/>
	<stop  offset="1" style="stop-color:#5DD0EF"/>
</linearGradient>
<path class="st25" d="M127,36.3l-2.8,1.1c-2.1,0.9-4.6-0.1-5.5-2.3l-1.2-2.8c-0.2-0.5-0.6-0.9-1.1-1.1l-2.8-1.2
	c-2.1-0.9-3.1-3.4-2.3-5.5l1.1-2.8c0.2-0.5,0.2-1,0-1.5l-1.1-2.8c-0.9-2.1,0.1-4.6,2.3-5.5l2.8-1.2c0.5-0.2,0.9-0.6,1.1-1.1l1.2-2.8
	c0.9-2.1,3.4-3.1,5.5-2.3l2.8,1.1c0.5,0.2,1,0.2,1.5,0l2.8-1.1c2.1-0.9,4.6,0.1,5.5,2.3l1.2,2.8c0.2,0.5,0.6,0.9,1.1,1.1l2.8,1.2
	c2.1,0.9,3.1,3.4,2.3,5.5l-1.1,2.8c-0.2,0.5-0.2,1,0,1.5l1.1,2.8c0.9,2.1-0.1,4.6-2.3,5.5l-2.8,1.2c-0.5,0.2-0.9,0.6-1.1,1.1
	l-1.2,2.8c-0.9,2.1-3.4,3.1-5.5,2.3l-2.8-1.1C128,36.1,127.4,36.1,127,36.3z M129.3,34.3l2.8,1.1c1,0.4,2.2-0.1,2.6-1.1l1.2-2.8
	c0.4-1,1.2-1.8,2.2-2.3l2.8-1.2c1-0.4,1.5-1.6,1.1-2.6l-1.1-2.8c-0.4-1-0.4-2.2,0-3.2l1.1-2.8c0.4-1-0.1-2.2-1.1-2.6l-2.8-1.2
	c-1-0.4-1.8-1.2-2.2-2.3l-1.2-2.8c-0.4-1-1.6-1.5-2.6-1.1l-2.8,1.1c-1,0.4-2.2,0.4-3.2,0l-2.8-1.1c-1-0.4-2.2,0.1-2.6,1.1l-1.2,2.8
	c-0.4,1-1.2,1.8-2.3,2.3l-2.8,1.2c-1,0.4-1.5,1.6-1.1,2.6l1.1,2.8c0.4,1,0.4,2.2,0,3.2l-1.1,2.8c-0.4,1,0.1,2.2,1.1,2.6l2.8,1.2
	c1,0.4,1.8,1.2,2.3,2.3l1.2,2.8c0.4,1,1.6,1.5,2.6,1.1l2.8-1.1C127.1,33.8,128.3,33.8,129.3,34.3z"/>
<linearGradient id="SVGID_25_" gradientUnits="userSpaceOnUse" x1="11.2974" y1="-32.503" x2="11.2974" y2="-129.4258">
	<stop  offset="0" style="stop-color:#D7FFFF"/>
	<stop  offset="1" style="stop-color:#5DD0EF"/>
</linearGradient>
<rect x="-56.9" y="-129.4" class="st26" width="136.4" height="96.9"/>
<linearGradient id="SVGID_26_" gradientUnits="userSpaceOnUse" x1="-210.0217" y1="38.8168" x2="-210.0217" y2="17.8182">
	<stop  offset="0" style="stop-color:#D7FFFF"/>
	<stop  offset="1" style="stop-color:#5DD0EF"/>
</linearGradient>
<path class="st27" d="M-219,17.8c-1.7,0-3,1.3-3,3v15c0,1.7,1.3,3,3,3h18c1.7,0,3-1.3,3-3v-15c0-1.7-1.3-3-3-3h-15L-219,17.8z
	 M-201.3,36.7h-17.5c-0.6,0-1.1-0.5-1.1-1.1V21c0-0.6,0.5-1.1,1.1-1.1h17.5c0.6,0,1.1,0.5,1.1,1.1v14.7
	C-200.2,36.3-200.7,36.7-201.3,36.7z"/>
</svg>
