<?xml version="1.0" encoding="utf-8"?>
<!-- Generator: Adobe Illustrator 21.0.2, SVG Export Plug-In . SVG Version: 6.00 Build 0)  -->
<svg version="1.1" id="Calque_1" xmlns="http://www.w3.org/2000/svg" xmlns:xlink="http://www.w3.org/1999/xlink" x="0px" y="0px"
	 viewBox="0 0 31.4 45.5" style="enable-background:new 0 0 31.4 45.5;" xml:space="preserve">
<style type="text/css">
	.st0{fill:url(#SVGID_1_);}
	.st1{fill:url(#SVGID_2_);}
	.st2{fill:url(#SVGID_3_);}
	.st3{fill:none;stroke:url(#SVGID_4_);stroke-width:1.5;stroke-miterlimit:10;}
	.st4{fill:url(#SVGID_5_);}
	.st5{fill:url(#SVGID_6_);}
	.st6{fill:url(#SVGID_7_);}
	.st7{fill:url(#SVGID_8_);}
	.st8{fill:url(#SVGID_9_);}
	.st9{fill:url(#SVGID_10_);}
	.st10{fill:url(#SVGID_11_);}
	.st11{fill:url(#SVGID_12_);}
	.st12{fill:url(#SVGID_13_);}
	.st13{fill:url(#SVGID_14_);}
	.st14{fill:url(#SVGID_15_);}
	.st15{fill:url(#SVGID_16_);}
	.st16{fill:url(#SVGID_17_);}
	.st17{fill:url(#SVGID_18_);}
	.st18{fill:url(#SVGID_19_);}
	.st19{fill:url(#SVGID_20_);}
	.st20{fill:url(#SVGID_21_);}
	.st21{fill:#87DFF3;}
	.st22{fill:#B4F1F9;}
	.st23{fill:url(#SVGID_22_);}
	.st24{fill:url(#SVGID_23_);}
	.st25{fill:url(#SVGID_24_);}
	.st26{fill:url(#SVGID_25_);}
	.st27{fill:url(#SVGID_26_);}
</style>
<linearGradient id="SVGID_1_" gradientUnits="userSpaceOnUse" x1="15.8748" y1="35.3259" x2="15.8748" y2="2.7073">
	<stop  offset="0" style="stop-color:#D7FFFF"/>
	<stop  offset="1" style="stop-color:#5DD0EF"/>
</linearGradient>
<path class="st0" d="M29.2,15.9c0-7.5-6.3-13.6-13.9-13.2C8.5,3,2.9,8.6,2.6,15.3c-0.1,3.4,1,6.7,3.2,9.2C7.9,26.9,9,30.2,9,33.7
	v0.6c0,0.6,0.4,1,1,1h11.7c0.6,0,1-0.4,1-1v-0.7c0-3.3,1.2-6.5,3.5-9.4C28.1,21.9,29.2,19,29.2,15.9z M20.8,33.3h-9.7
	c-0.1-3.8-1.4-7.4-3.7-10.1c-1.9-2.2-2.8-5-2.7-7.8C5,9.6,9.7,4.9,15.4,4.6c6.5-0.3,11.8,4.9,11.8,11.3c0,2.6-0.9,5-2.5,7.1
	C22.2,26.1,20.8,29.7,20.8,33.3z"/>
<linearGradient id="SVGID_2_" gradientUnits="userSpaceOnUse" x1="16.0279" y1="39.6259" x2="16.0279" y2="37.6259">
	<stop  offset="0" style="stop-color:#D7FFFF"/>
	<stop  offset="1" style="stop-color:#5DD0EF"/>
</linearGradient>
<path class="st1" d="M21.7,37.6H10.4c-0.6,0-1,0.4-1,1s0.4,1,1,1h11.3c0.6,0,1-0.4,1-1S22.3,37.6,21.7,37.6z"/>
<linearGradient id="SVGID_3_" gradientUnits="userSpaceOnUse" x1="16.0279" y1="43.3259" x2="16.0279" y2="41.3259">
	<stop  offset="0" style="stop-color:#D7FFFF"/>
	<stop  offset="1" style="stop-color:#5DD0EF"/>
</linearGradient>
<path class="st2" d="M19.7,41.3h-7.3c-0.6,0-1,0.4-1,1s0.4,1,1,1h7.3c0.6,0,1-0.4,1-1S20.3,41.3,19.7,41.3z"/>
<linearGradient id="SVGID_4_" gradientUnits="userSpaceOnUse" x1="15.6743" y1="33.3983" x2="15.6743" y2="14.0312">
	<stop  offset="0" style="stop-color:#D7FFFF"/>
	<stop  offset="1" style="stop-color:#5DD0EF"/>
</linearGradient>
<path class="st3" d="M15.7,33.4c0.1-5.9,0-11.8-0.3-17.7c1.5,1.2,2.9,2.7,3.6,4.5c0.7,1.8,0.6,4-0.6,5.5c-0.9,1.2-2.3,1.9-3,3.2
	c-2.3-1.5-3.9-4.4-3.2-7c0.5-2.1,2.2-3.8,2.7-5.8"/>
<linearGradient id="SVGID_5_" gradientUnits="userSpaceOnUse" x1="73.4104" y1="32.8168" x2="73.4104" y2="23.8177">
	<stop  offset="0" style="stop-color:#D7FFFF"/>
	<stop  offset="1" style="stop-color:#5DD0EF"/>
</linearGradient>
<path class="st4" d="M71.9,29.4v1.9c0,0.8,0.7,1.5,1.5,1.5s1.5-0.7,1.5-1.5v-1.9c0.9-0.5,1.5-1.5,1.5-2.6c0-1.7-1.3-3-3-3
	c-1.7,0-3,1.3-3,3C70.4,27.9,71,28.9,71.9,29.4z"/>
<g>
	<g>
		<linearGradient id="SVGID_6_" gradientUnits="userSpaceOnUse" x1="73.8687" y1="19.6845" x2="73.8687" y2="3.1873">
			<stop  offset="0" style="stop-color:#D7FFFF"/>
			<stop  offset="1" style="stop-color:#5DD0EF"/>
		</linearGradient>
		<path class="st5" d="M80.9,13.7C80.9,13.7,80.9,13.7,80.9,13.7l0-1.5c-0.1-4.7-3.7-7-7-7c-3.3,0-7,2.3-7,7v6
			c0,0.8-0.1,1.5-0.9,1.5c-0.8,0-1.1-0.7-1.1-1.5v-5.6c0-4.8,3.6-9,8.4-9.3c5.2-0.3,9.6,3.8,9.6,9v1.4c0,0,0,0,0,0L80.9,13.7z"/>
	</g>
</g>
<linearGradient id="SVGID_7_" gradientUnits="userSpaceOnUse" x1="129.6432" y1="41.1105" x2="129.6432" y2="7.9501">
	<stop  offset="0" style="stop-color:#D7FFFF"/>
	<stop  offset="1" style="stop-color:#5DD0EF"/>
</linearGradient>
<path class="st6" d="M140.8,17.2c0-0.2-0.1-0.4-0.2-0.5l-7.4-8.5C133.1,8,133,7.9,132.8,8h-12.1c-1.8,0-2.2,0.6-2.2,2.6v27.9
	c0,2,0.4,2.6,2.2,2.6h17.9c1.8,0,2.2-0.6,2.2-2.6V17.2z M133,10.9l5.4,6.2l-4,0c-0.5,0-1.3-0.8-1.3-1.4L133,10.9z M137.6,38.7h-15.9
	c-1.1,0-1,0-1-1.2V12.6c0-1.2-0.1-2.2,0.9-2.2h9.7v5.3c0,1.4,1.9,3.1,3.1,3.1h4.3v18.7C138.7,38.7,138.7,38.7,137.6,38.7z"/>
<linearGradient id="SVGID_8_" gradientUnits="userSpaceOnUse" x1="131.5865" y1="25.3463" x2="131.5865" y2="23.8924">
	<stop  offset="0" style="stop-color:#D7FFFF"/>
	<stop  offset="1" style="stop-color:#5DD0EF"/>
</linearGradient>
<path class="st7" d="M135.9,23.9h-8.7c-0.4,0-0.6,0.3-0.6,0.7s0.3,0.7,0.6,0.7h8.7c0.4,0,0.6-0.3,0.6-0.7S136.3,23.9,135.9,23.9z"/>
<linearGradient id="SVGID_9_" gradientUnits="userSpaceOnUse" x1="123.3618" y1="25.7098" x2="123.3618" y2="23.5288">
	<stop  offset="0" style="stop-color:#D7FFFF"/>
	<stop  offset="1" style="stop-color:#5DD0EF"/>
</linearGradient>
<path class="st8" d="M123.4,23.5c-0.5,0-1,0.5-1,1.1s0.4,1.1,1,1.1l0,0h0c0.5,0,1-0.5,1-1.1C124.3,24,123.9,23.5,123.4,23.5
	C123.4,23.5,123.4,23.5,123.4,23.5z"/>
<linearGradient id="SVGID_10_" gradientUnits="userSpaceOnUse" x1="131.587" y1="30.0716" x2="131.587" y2="28.6177">
	<stop  offset="0" style="stop-color:#D7FFFF"/>
	<stop  offset="1" style="stop-color:#5DD0EF"/>
</linearGradient>
<path class="st9" d="M135.9,28.6h-8.7c-0.4,0-0.6,0.3-0.6,0.7c0,0.4,0.3,0.7,0.6,0.7h8.7c0.4,0,0.6-0.3,0.6-0.7
	S136.3,28.6,135.9,28.6z"/>
<linearGradient id="SVGID_11_" gradientUnits="userSpaceOnUse" x1="123.3624" y1="30.4351" x2="123.3624" y2="28.254">
	<stop  offset="0" style="stop-color:#D7FFFF"/>
	<stop  offset="1" style="stop-color:#5DD0EF"/>
</linearGradient>
<path class="st10" d="M123.4,28.3c-0.5,0-1,0.5-1,1.1c0,0.6,0.4,1.1,1,1.1h0c0.5,0,1-0.5,1-1.1C124.3,28.7,123.9,28.3,123.4,28.3
	C123.4,28.3,123.4,28.3,123.4,28.3z"/>
<linearGradient id="SVGID_12_" gradientUnits="userSpaceOnUse" x1="131.5865" y1="34.7968" x2="131.5865" y2="33.3429">
	<stop  offset="0" style="stop-color:#D7FFFF"/>
	<stop  offset="1" style="stop-color:#5DD0EF"/>
</linearGradient>
<path class="st11" d="M135.9,33.3h-8.7c-0.4,0-0.6,0.3-0.6,0.7s0.3,0.7,0.6,0.7h8.7c0.4,0,0.6-0.3,0.6-0.7S136.3,33.3,135.9,33.3z"
	/>
<linearGradient id="SVGID_13_" gradientUnits="userSpaceOnUse" x1="123.3618" y1="35.1603" x2="123.3618" y2="32.9793">
	<stop  offset="0" style="stop-color:#D7FFFF"/>
	<stop  offset="1" style="stop-color:#5DD0EF"/>
</linearGradient>
<path class="st12" d="M123.4,33c-0.5,0-1,0.5-1,1.1s0.4,1.1,1,1.1l0,0h0c0.5,0,1-0.5,1-1.1C124.3,33.5,123.9,33,123.4,33
	C123.4,33,123.4,33,123.4,33z"/>
<linearGradient id="SVGID_14_" gradientUnits="userSpaceOnUse" x1="185.0253" y1="41.1105" x2="185.0253" y2="-9.094947e-13">
	<stop  offset="0" style="stop-color:#D7FFFF"/>
	<stop  offset="1" style="stop-color:#5DD0EF"/>
</linearGradient>
<path class="st13" d="M196.3,13.3L189.6,9c0.4-0.9,0.5-1.8,0.5-2.8c0-3.4-2.3-6.2-5.1-6.2S180,2.8,180,6.2c0,1,0.2,1.9,0.5,2.8
	l-6.7,4.3c-0.2,0.2-0.4,0.4-0.4,0.7v26.3c0,0.4,0.4,0.8,0.8,0.8h21.5c0.4,0,0.8-0.4,0.8-0.8V14C196.6,13.6,196.5,13.4,196.3,13.3z
	 M182,6.1c0-2.3,1.4-4.1,3.2-4.1s3.2,1.9,3.2,4.1c0,0.6-0.1,1.2-0.3,1.7l-2.5-1.6c-0.2-0.1-0.5-0.1-0.8,0l-2.5,1.6
	C182.1,7.2,182,6.6,182,6.1z M194.6,38.7h-18.9V14.8l6.5-4.2l0,0l0,0l3-2l2.3,1.5c-0.2,0.3-0.5,0.5-0.7,0.7c-0.4-0.3-1-0.5-1.5-0.5
	c-0.8,0-1.4,0.4-1.9,0.9c-0.1,0.1-0.1,0.1-0.2,0.2c-0.3,0.4-0.5,0.9-0.5,1.5c0,1.4,1.1,2.6,2.6,2.6s2.6-1.1,2.6-2.6
	c0-0.3-0.1-0.6-0.2-0.8c0.4-0.3,0.8-0.7,1.1-1.1l5.9,3.8L194.6,38.7L194.6,38.7z M186.2,12.3c0,0.6-0.5,1.1-1.1,1.1
	s-1.1-0.5-1.1-1.1c0-0.1,0-0.1,0-0.2c0.3,0.1,0.7,0.2,1.1,0.2s0.7-0.1,1.1-0.2C186.2,12.3,186.2,12.3,186.2,12.3z"/>
<g>
	<linearGradient id="SVGID_15_" gradientUnits="userSpaceOnUse" x1="184.8818" y1="32.4013" x2="184.8818" y2="22.6338">
		<stop  offset="0" style="stop-color:#D7FFFF"/>
		<stop  offset="1" style="stop-color:#5DD0EF"/>
	</linearGradient>
	<path class="st14" d="M179.3,25.1c0-1.4,1-2.5,2.5-2.5c1.5,0,2.5,1.1,2.5,2.5c0,1.4-1,2.5-2.5,2.5S179.3,26.5,179.3,25.1z
		 M187.3,22.7h1.8l-6.7,9.5h-1.8L187.3,22.7z M182.6,25.1c0-0.6-0.3-1-0.8-1c-0.5,0-0.8,0.3-0.8,1c0,0.6,0.3,1,0.8,1
		C182.3,26.1,182.6,25.7,182.6,25.1z M185.5,29.9c0-1.4,1-2.5,2.5-2.5c1.5,0,2.5,1.1,2.5,2.5c0,1.4-1,2.5-2.5,2.5
		C186.4,32.4,185.5,31.3,185.5,29.9z M188.8,29.9c0-0.6-0.4-1-0.8-1c-0.5,0-0.8,0.3-0.8,1c0,0.6,0.3,1,0.8,1
		C188.4,30.9,188.8,30.6,188.8,29.9z"/>
</g>
<linearGradient id="SVGID_16_" gradientUnits="userSpaceOnUse" x1="246.6748" y1="33.0545" x2="246.6748" y2="5.0725">
	<stop  offset="0" style="stop-color:#D7FFFF"/>
	<stop  offset="1" style="stop-color:#5DD0EF"/>
</linearGradient>
<path class="st15" d="M246.7,33.1c-7.7,0-14-6.3-14-14c0-7,5.3-13,12.2-13.9c0.4-0.1,0.8,0.2,0.9,0.5c0.2,0.4,0.1,0.8-0.2,1.1
	c-2.1,1.8-3.4,4.5-3.4,7.3c0,5.3,4.3,9.5,9.5,9.5c2.8,0,5.4-1.2,7.3-3.4c0.3-0.3,0.7-0.4,1.1-0.2c0.4,0.2,0.6,0.5,0.5,0.9
	C259.8,27.8,253.8,33.1,246.7,33.1z M242.4,7.6c-4.7,1.8-7.9,6.3-7.9,11.4c0,6.7,5.5,12.2,12.2,12.2c5.2,0,9.7-3.3,11.4-7.9
	c-1.9,1.3-4.1,2-6.4,2c-6.3,0-11.4-5.1-11.4-11.4C240.4,11.6,241.1,9.4,242.4,7.6z"/>
<linearGradient id="SVGID_17_" gradientUnits="userSpaceOnUse" x1="252.6479" y1="16.3459" x2="252.6479" y2="10.1322">
	<stop  offset="0" style="stop-color:#D7FFFF"/>
	<stop  offset="1" style="stop-color:#5DD0EF"/>
</linearGradient>
<path class="st16" d="M252.7,10.2l0.9,1.9l2.1,0.3c0.1,0,0.1,0.1,0.1,0.2l-1.6,1.5l0.3,2c0,0.1-0.1,0.3-0.3,0.2l-1.8-1l-1.8,1
	c-0.1,0.1-0.3,0-0.3-0.2l0.3-2l-1.5-1.4c-0.1-0.1,0-0.3,0.1-0.3l2-0.3l0.9-1.9C252.5,10.1,252.7,10.1,252.7,10.2z"/>
<linearGradient id="SVGID_18_" gradientUnits="userSpaceOnUse" x1="224.9864" y1="22.5506" x2="224.9864" y2="16.1779">
	<stop  offset="0" style="stop-color:#D7FFFF"/>
	<stop  offset="1" style="stop-color:#5DD0EF"/>
</linearGradient>
<path class="st17" d="M225.1,16.2l1,2c0,0,0,0,0.1,0l2.2,0.3c0.1,0,0.1,0.1,0,0.1l-1.6,1.5c0,0,0,0,0,0.1l0.4,2.2
	c0,0.1-0.1,0.1-0.1,0.1l-1.9-1c0,0-0.1,0-0.1,0l-1.9,1c-0.1,0-0.1,0-0.1-0.1l0.4-2.2c0,0,0-0.1,0-0.1l-1.6-1.5c0,0,0-0.1,0-0.1
	l2.2-0.3c0,0,0,0,0.1,0l1-2C224.9,16.2,225,16.2,225.1,16.2z"/>
<linearGradient id="SVGID_19_" gradientUnits="userSpaceOnUse" x1="234.2961" y1="40.0351" x2="234.2961" y2="30.2306">
	<stop  offset="0" style="stop-color:#D7FFFF"/>
	<stop  offset="1" style="stop-color:#5DD0EF"/>
</linearGradient>
<path class="st18" d="M234.4,30.3l1.5,3.1c0,0,0,0,0.1,0l3.4,0.5c0.1,0,0.1,0.1,0,0.1l-2.5,2.4c0,0,0,0,0,0.1l0.6,3.4
	c0,0.1-0.1,0.1-0.1,0.1l-3.1-1.6c0,0-0.1,0-0.1,0l-3.1,1.6c-0.1,0-0.1,0-0.1-0.1l0.6-3.4c0,0,0-0.1,0-0.1l-2.5-2.4c0,0,0-0.1,0-0.1
	l3.4-0.5c0,0,0,0,0.1,0l1.5-3.1C234.3,30.2,234.3,30.2,234.4,30.3z"/>
<linearGradient id="SVGID_20_" gradientUnits="userSpaceOnUse" x1="299.2632" y1="41.1103" x2="299.2632" y2="4.7403">
	<stop  offset="0" style="stop-color:#D7FFFF"/>
	<stop  offset="1" style="stop-color:#5DD0EF"/>
</linearGradient>
<path class="st19" d="M310.7,17.2c-0.2-0.4-0.6-0.6-1-0.6h-8.2l6-10.3c0.2-0.3,0.2-0.7,0-1.1c-0.2-0.3-0.5-0.5-0.9-0.5h-12.2
	c-0.5,0-0.9,0.3-1,0.7l-5.7,17.1c-0.1,0.3-0.1,0.7,0.1,1c0.2,0.3,0.5,0.4,0.9,0.4h8.6l-4.6,15.8c-0.1,0.5,0.1,1,0.6,1.3
	c0.2,0.1,0.3,0.1,0.5,0.1c0.3,0,0.7-0.2,0.9-0.5l15.9-22.3C310.8,18,310.9,17.6,310.7,17.2z M296.6,34.2l3.2-11
	c0.1-0.3,0-0.7-0.2-0.9c-0.2-0.3-0.5-0.4-0.9-0.4h-8.5l5-14.9h9.5l-6,10.3c-0.2,0.3-0.2,0.7,0,1.1s0.5,0.5,0.9,0.5h8L296.6,34.2z"/>
<g>
	<g>
		<linearGradient id="SVGID_21_" gradientUnits="userSpaceOnUse" x1="354.0329" y1="34.7216" x2="354.0329" y2="7.5354">
			<stop  offset="0" style="stop-color:#D7FFFF"/>
			<stop  offset="1" style="stop-color:#5DD0EF"/>
		</linearGradient>
		<path class="st20" d="M362.3,27.9c-0.1,0.1-0.2,0.2-0.3,0.3C362.1,28.1,362.2,28,362.3,27.9c-0.6,0.8-1.3,1.5-2.1,2.1
			c0.1-0.1,0.2-0.2,0.3-0.2c-0.7,0.6-1.5,1-2.3,1.4c0.1-0.1,0.2-0.1,0.4-0.2c-0.8,0.3-1.6,0.6-2.5,0.7c0.1,0,0.3,0,0.4-0.1
			c-0.9,0.1-1.7,0.1-2.6,0c0.1,0,0.3,0,0.4,0.1c-0.9-0.1-1.7-0.3-2.5-0.7c0.1,0.1,0.2,0.1,0.4,0.2c-0.8-0.3-1.6-0.8-2.3-1.3
			c0.1,0.1,0.2,0.2,0.3,0.2c-0.8-0.6-1.5-1.3-2.1-2.1c0.1,0.1,0.2,0.2,0.2,0.3c-0.6-0.8-1.2-1.8-1.6-2.7c0.1,0.1,0.1,0.2,0.2,0.4
			c-0.4-1.1-0.7-2.2-0.9-3.3c0,0.1,0,0.3,0.1,0.4c-0.2-1.2-0.2-2.4,0-3.6c0,0.1,0,0.3-0.1,0.4c0.2-1.1,0.5-2.3,0.9-3.3
			c-0.1,0.1-0.1,0.2-0.2,0.4c0.4-1,0.9-1.9,1.6-2.7c-0.1,0.1-0.2,0.2-0.2,0.3c0.6-0.8,1.3-1.5,2.1-2.1c-0.1,0.1-0.2,0.2-0.3,0.2
			c0.7-0.5,1.5-1,2.3-1.3c-0.1,0.1-0.2,0.1-0.4,0.2c0.8-0.3,1.6-0.6,2.5-0.7c-0.1,0-0.3,0-0.4,0.1c0.9-0.1,1.7-0.1,2.6,0
			c-0.1,0-0.3,0-0.4-0.1c0.9,0.1,1.7,0.3,2.5,0.7c-0.1-0.1-0.2-0.1-0.4-0.2c0.8,0.4,1.6,0.8,2.3,1.4c-0.1-0.1-0.2-0.2-0.3-0.2
			c0.8,0.6,1.4,1.3,2,2c-0.1-0.1-0.2-0.2-0.2-0.3c0.1,0.1,0.2,0.2,0.3,0.3c0.2,0.3,0.5,0.6,0.9,0.7c0.4,0.1,0.9,0.1,1.2-0.2
			c0.3-0.2,0.6-0.5,0.7-0.9c0.1-0.4,0.1-0.9-0.2-1.2c-1.3-1.8-3-3.4-5-4.3c-0.6-0.2-1.1-0.5-1.7-0.6c-0.6-0.2-1.2-0.3-1.8-0.3
			c-1-0.1-2.1-0.1-3.1,0.1c-1.8,0.3-3.6,1.1-5.1,2.3c-1.5,1.2-2.8,2.7-3.7,4.4c-1,1.9-1.5,3.9-1.6,6.1c-0.1,1.1,0,2.2,0.2,3.3
			c0.1,0.9,0.4,1.8,0.7,2.7c0.7,1.9,1.8,3.6,3.2,5c1.4,1.3,3.1,2.4,5,2.9c2,0.6,4.2,0.6,6.2,0c2.1-0.6,4.1-1.8,5.6-3.4
			c0.4-0.4,0.8-0.9,1.1-1.4c0.2-0.3,0.3-0.8,0.2-1.2c-0.1-0.4-0.4-0.7-0.7-0.9c-0.4-0.2-0.8-0.3-1.2-0.2c-0.1,0.1-0.2,0.1-0.4,0.2
			C362.6,27.5,362.4,27.7,362.3,27.9L362.3,27.9z"/>
	</g>
</g>
<g>
	<g>
		<path class="st21" d="M339,19.5c0.6,0,1.1,0,1.7,0c1.4,0,2.7,0,4.1,0c1.6,0,3.3,0,4.9,0c1.4,0,2.8,0,4.2,0c0.7,0,1.4,0,2.1,0
			c0,0,0,0,0,0c0.4,0,0.8-0.2,1.1-0.4c0.3-0.3,0.5-0.7,0.4-1.1c0-0.4-0.1-0.8-0.4-1.1c-0.3-0.3-0.7-0.4-1.1-0.4c-0.6,0-1.1,0-1.7,0
			c-1.4,0-2.7,0-4.1,0c-1.6,0-3.3,0-4.9,0c-1.4,0-2.8,0-4.2,0c-0.7,0-1.4,0-2.1,0c0,0,0,0,0,0c-0.4,0-0.8,0.2-1.1,0.4
			c-0.3,0.3-0.5,0.7-0.4,1.1c0,0.4,0.1,0.8,0.4,1.1C338.2,19.3,338.5,19.5,339,19.5L339,19.5z"/>
	</g>
</g>
<g>
	<g>
		<path class="st22" d="M356,22.8c-0.6,0-1.1,0-1.7,0c-1.4,0-2.7,0-4.1,0c-1.6,0-3.3,0-4.9,0c-1.4,0-2.8,0-4.2,0c-0.7,0-1.4,0-2.1,0
			c0,0,0,0,0,0c-0.4,0-0.8,0.2-1.1,0.4c-0.3,0.3-0.5,0.7-0.4,1.1c0,0.4,0.1,0.8,0.4,1.1c0.3,0.3,0.7,0.4,1.1,0.4c0.6,0,1.1,0,1.7,0
			c1.4,0,2.7,0,4.1,0c1.6,0,3.3,0,4.9,0c1.4,0,2.8,0,4.2,0c0.7,0,1.4,0,2.1,0c0,0,0,0,0,0c0.4,0,0.8-0.2,1.1-0.4
			c0.3-0.3,0.5-0.7,0.4-1.1c0-0.4-0.1-0.8-0.4-1.1C356.8,23,356.4,22.8,356,22.8L356,22.8z"/>
	</g>
</g>
<g>
	<linearGradient id="SVGID_22_" gradientUnits="userSpaceOnUse" x1="415.6883" y1="26.3725" x2="415.6883" y2="15.7665">
		<stop  offset="0" style="stop-color:#D7FFFF"/>
		<stop  offset="1" style="stop-color:#5DD0EF"/>
	</linearGradient>
	<path class="st23" d="M418.6,24.8c0,0.5,0,1,0,1.5c-1.2,0.4-3.5-0.4-4.7-1.9c-1.4-1.7-1.5-4.2-0.3-6.1c1.2-1.9,3.5-2.7,5.1-2.4
		c0,0.5,0,1,0,1.5c-1.2-0.1-2.3,0.2-3.2,1.1c-0.5,0.5-0.9,1.2-0.9,1.8c1,0,2,0,3,0c0,0.5,0,1,0,1.6c-1,0-2,0-3,0
		C414.7,23.6,416.3,24.7,418.6,24.8z"/>
	<linearGradient id="SVGID_23_" gradientUnits="userSpaceOnUse" x1="406.6199" y1="26.3703" x2="406.6199" y2="15.7658">
		<stop  offset="0" style="stop-color:#D7FFFF"/>
		<stop  offset="1" style="stop-color:#5DD0EF"/>
	</linearGradient>
	<path class="st24" d="M409.6,15.8c0,0.5,0,1,0,1.5c-1.4-0.1-2.5,0.3-3.4,1.3c-0.6,0.8-0.9,1.6-0.9,2.6c0.1,1.8,1.6,3.7,4.3,3.5
		c0,0.5,0,1,0,1.5c-1.5,0.3-3.7-0.4-5-2.3c-1.2-1.8-1.2-4.2,0-6C405.9,16.2,408.1,15.5,409.6,15.8z"/>
</g>
<linearGradient id="SVGID_24_" gradientUnits="userSpaceOnUse" x1="411.1449" y1="37.7807" x2="411.1449" y2="4.3576">
	<stop  offset="0" style="stop-color:#D7FFFF"/>
	<stop  offset="1" style="stop-color:#5DD0EF"/>
</linearGradient>
<path class="st25" d="M410.4,36.3l-2.8,1.1c-2.1,0.9-4.6-0.1-5.5-2.3l-1.2-2.8c-0.2-0.5-0.6-0.9-1.1-1.1l-2.8-1.2
	c-2.1-0.9-3.1-3.4-2.3-5.5l1.1-2.8c0.2-0.5,0.2-1,0-1.5l-1.1-2.8c-0.9-2.1,0.1-4.6,2.3-5.5l2.8-1.2c0.5-0.2,0.9-0.6,1.1-1.1l1.2-2.8
	c0.9-2.1,3.4-3.1,5.5-2.3l2.8,1.1c0.5,0.2,1,0.2,1.5,0l2.8-1.1c2.1-0.9,4.6,0.1,5.5,2.3l1.2,2.8c0.2,0.5,0.6,0.9,1.1,1.1l2.8,1.2
	c2.1,0.9,3.1,3.4,2.3,5.5l-1.1,2.8c-0.2,0.5-0.2,1,0,1.5l1.1,2.8c0.9,2.1-0.1,4.6-2.3,5.5l-2.8,1.2c-0.5,0.2-0.9,0.6-1.1,1.1
	l-1.2,2.8c-0.9,2.1-3.4,3.1-5.5,2.3l-2.8-1.1C411.4,36.1,410.9,36.1,410.4,36.3z M412.7,34.3l2.8,1.1c1,0.4,2.2-0.1,2.6-1.1l1.2-2.8
	c0.4-1,1.2-1.8,2.2-2.3l2.8-1.2c1-0.4,1.5-1.6,1.1-2.6l-1.1-2.8c-0.4-1-0.4-2.2,0-3.2l1.1-2.8c0.4-1-0.1-2.2-1.1-2.6l-2.8-1.2
	c-1-0.4-1.8-1.2-2.2-2.3l-1.2-2.8c-0.4-1-1.6-1.5-2.6-1.1l-2.8,1.1c-1,0.4-2.2,0.4-3.2,0l-2.8-1.1c-1-0.4-2.2,0.1-2.6,1.1l-1.2,2.8
	c-0.4,1-1.2,1.8-2.3,2.3l-2.8,1.2c-1,0.4-1.5,1.6-1.1,2.6l1.1,2.8c0.4,1,0.4,2.2,0,3.2l-1.1,2.8c-0.4,1,0.1,2.2,1.1,2.6l2.8,1.2
	c1,0.4,1.8,1.2,2.3,2.3l1.2,2.8c0.4,1,1.6,1.5,2.6,1.1l2.8-1.1C410.6,33.8,411.7,33.8,412.7,34.3z"/>
<linearGradient id="SVGID_25_" gradientUnits="userSpaceOnUse" x1="294.7295" y1="-32.503" x2="294.7295" y2="-129.4258">
	<stop  offset="0" style="stop-color:#D7FFFF"/>
	<stop  offset="1" style="stop-color:#5DD0EF"/>
</linearGradient>
<rect x="226.6" y="-129.4" class="st26" width="136.4" height="96.9"/>
<linearGradient id="SVGID_26_" gradientUnits="userSpaceOnUse" x1="73.4104" y1="38.8168" x2="73.4104" y2="17.8182">
	<stop  offset="0" style="stop-color:#D7FFFF"/>
	<stop  offset="1" style="stop-color:#5DD0EF"/>
</linearGradient>
<path class="st27" d="M64.4,17.8c-1.7,0-3,1.3-3,3v15c0,1.7,1.3,3,3,3h18c1.7,0,3-1.3,3-3v-15c0-1.7-1.3-3-3-3h-15L64.4,17.8z
	 M82.1,36.7H64.7c-0.6,0-1.1-0.5-1.1-1.1V21c0-0.6,0.5-1.1,1.1-1.1h17.5c0.6,0,1.1,0.5,1.1,1.1v14.7C83.2,36.3,82.7,36.7,82.1,36.7z
	"/>
</svg>
