<?xml version="1.0" encoding="utf-8"?>
<!-- Generator: Adobe Illustrator 21.0.2, SVG Export Plug-In . SVG Version: 6.00 Build 0)  -->
<svg version="1.1" id="Calque_1" xmlns="http://www.w3.org/2000/svg" xmlns:xlink="http://www.w3.org/1999/xlink" x="0px" y="0px"
	 viewBox="0 0 30 47.2" style="enable-background:new 0 0 30 47.2;" xml:space="preserve">
<style type="text/css">
	.st0{fill:url(#SVGID_1_);}
	.st1{fill:url(#SVGID_2_);}
	.st2{fill:url(#SVGID_3_);}
	.st3{fill:none;stroke:url(#SVGID_4_);stroke-width:1.5;stroke-miterlimit:10;}
	.st4{fill:url(#SVGID_5_);}
	.st5{fill:url(#SVGID_6_);}
	.st6{fill:url(#SVGID_7_);}
	.st7{fill:url(#SVGID_8_);}
	.st8{fill:url(#SVGID_9_);}
	.st9{fill:url(#SVGID_10_);}
	.st10{fill:url(#SVGID_11_);}
	.st11{fill:url(#SVGID_12_);}
	.st12{fill:url(#SVGID_13_);}
	.st13{fill:url(#SVGID_14_);}
	.st14{fill:url(#SVGID_15_);}
	.st15{fill:url(#SVGID_16_);}
	.st16{fill:url(#SVGID_17_);}
	.st17{fill:url(#SVGID_18_);}
	.st18{fill:url(#SVGID_19_);}
	.st19{fill:url(#SVGID_20_);}
	.st20{fill:url(#SVGID_21_);}
	.st21{fill:#87DFF3;}
	.st22{fill:#B4F1F9;}
	.st23{fill:url(#SVGID_22_);}
	.st24{fill:url(#SVGID_23_);}
	.st25{fill:url(#SVGID_24_);}
	.st26{fill:url(#SVGID_25_);}
	.st27{fill:url(#SVGID_26_);}
</style>
<linearGradient id="SVGID_1_" gradientUnits="userSpaceOnUse" x1="-154.773" y1="37.0263" x2="-154.773" y2="4.4077">
	<stop  offset="0" style="stop-color:#D7FFFF"/>
	<stop  offset="1" style="stop-color:#5DD0EF"/>
</linearGradient>
<path class="st0" d="M-141.5,17.6c0-7.5-6.3-13.6-13.9-13.2c-6.8,0.3-12.4,5.9-12.7,12.6c-0.1,3.4,1,6.7,3.2,9.2
	c2.1,2.4,3.2,5.7,3.2,9.2V36c0,0.6,0.4,1,1,1h11.7c0.6,0,1-0.4,1-1v-0.7c0-3.3,1.2-6.5,3.5-9.4C-142.6,23.6-141.5,20.7-141.5,17.6z
	 M-149.9,35h-9.7c-0.1-3.8-1.4-7.4-3.7-10.1c-1.9-2.2-2.8-5-2.7-7.8c0.3-5.8,5-10.5,10.7-10.8c6.5-0.3,11.8,4.9,11.8,11.3
	c0,2.6-0.9,5-2.5,7.1C-148.5,27.8-149.9,31.4-149.9,35z"/>
<linearGradient id="SVGID_2_" gradientUnits="userSpaceOnUse" x1="-154.6198" y1="41.3263" x2="-154.6198" y2="39.3263">
	<stop  offset="0" style="stop-color:#D7FFFF"/>
	<stop  offset="1" style="stop-color:#5DD0EF"/>
</linearGradient>
<path class="st1" d="M-149,39.3h-11.3c-0.6,0-1,0.4-1,1s0.4,1,1,1h11.3c0.6,0,1-0.4,1-1S-148.4,39.3-149,39.3z"/>
<linearGradient id="SVGID_3_" gradientUnits="userSpaceOnUse" x1="-154.6198" y1="45.0263" x2="-154.6198" y2="43.0263">
	<stop  offset="0" style="stop-color:#D7FFFF"/>
	<stop  offset="1" style="stop-color:#5DD0EF"/>
</linearGradient>
<path class="st2" d="M-151,43h-7.3c-0.6,0-1,0.4-1,1s0.4,1,1,1h7.3c0.6,0,1-0.4,1-1S-150.4,43-151,43z"/>
<linearGradient id="SVGID_4_" gradientUnits="userSpaceOnUse" x1="-154.9734" y1="35.0988" x2="-154.9734" y2="15.7316">
	<stop  offset="0" style="stop-color:#D7FFFF"/>
	<stop  offset="1" style="stop-color:#5DD0EF"/>
</linearGradient>
<path class="st3" d="M-154.9,35.1c0.1-5.9,0-11.8-0.3-17.7c1.5,1.2,2.9,2.7,3.6,4.5c0.7,1.8,0.6,4-0.6,5.5c-0.9,1.2-2.3,1.9-3,3.2
	c-2.3-1.5-3.9-4.4-3.2-7c0.5-2.1,2.2-3.8,2.7-5.8"/>
<linearGradient id="SVGID_5_" gradientUnits="userSpaceOnUse" x1="-97.2373" y1="34.5173" x2="-97.2373" y2="25.5182">
	<stop  offset="0" style="stop-color:#D7FFFF"/>
	<stop  offset="1" style="stop-color:#5DD0EF"/>
</linearGradient>
<path class="st4" d="M-98.7,31.1V33c0,0.8,0.7,1.5,1.5,1.5c0.8,0,1.5-0.7,1.5-1.5v-1.9c0.9-0.5,1.5-1.5,1.5-2.6c0-1.7-1.3-3-3-3
	c-1.7,0-3,1.3-3,3C-100.2,29.6-99.6,30.6-98.7,31.1z"/>
<g>
	<g>
		<linearGradient id="SVGID_6_" gradientUnits="userSpaceOnUse" x1="-96.779" y1="21.385" x2="-96.779" y2="4.8877">
			<stop  offset="0" style="stop-color:#D7FFFF"/>
			<stop  offset="1" style="stop-color:#5DD0EF"/>
		</linearGradient>
		<path class="st5" d="M-89.7,15.4C-89.8,15.4-89.8,15.4-89.7,15.4l0-1.5c-0.1-4.7-3.7-7-7-7c-3.3,0-7,2.3-7,7v6
			c0,0.8-0.1,1.5-0.9,1.5c-0.8,0-1.1-0.7-1.1-1.5v-5.6c0-4.8,3.6-9,8.4-9.3c5.2-0.3,9.6,3.8,9.6,9v1.4c0,0,0,0,0,0L-89.7,15.4z"/>
	</g>
</g>
<linearGradient id="SVGID_7_" gradientUnits="userSpaceOnUse" x1="-41.0045" y1="42.8109" x2="-41.0045" y2="9.6506">
	<stop  offset="0" style="stop-color:#D7FFFF"/>
	<stop  offset="1" style="stop-color:#5DD0EF"/>
</linearGradient>
<path class="st6" d="M-29.8,18.9c0-0.2-0.1-0.4-0.2-0.5l-7.4-8.5c-0.1-0.1-0.3-0.2-0.5-0.2H-50c-1.8,0-2.2,0.6-2.2,2.6v27.9
	c0,2,0.4,2.6,2.2,2.6H-32c1.8,0,2.2-0.6,2.2-2.6V18.9z M-37.7,12.6l5.4,6.2l-4,0c-0.5,0-1.3-0.8-1.3-1.4L-37.7,12.6z M-33,40.4H-49
	c-1.1,0-1,0-1-1.2V14.3c0-1.2-0.1-2.2,0.9-2.2h9.7v5.3c0,1.4,1.9,3.1,3.1,3.1h4.3v18.7C-32,40.4-32,40.4-33,40.4z"/>
<linearGradient id="SVGID_8_" gradientUnits="userSpaceOnUse" x1="-39.0612" y1="27.0468" x2="-39.0612" y2="25.5928">
	<stop  offset="0" style="stop-color:#D7FFFF"/>
	<stop  offset="1" style="stop-color:#5DD0EF"/>
</linearGradient>
<path class="st7" d="M-34.7,25.6h-8.7c-0.4,0-0.6,0.3-0.6,0.7s0.3,0.7,0.6,0.7h8.7c0.4,0,0.6-0.3,0.6-0.7S-34.4,25.6-34.7,25.6z"/>
<linearGradient id="SVGID_9_" gradientUnits="userSpaceOnUse" x1="-47.2859" y1="27.4103" x2="-47.2859" y2="25.2292">
	<stop  offset="0" style="stop-color:#D7FFFF"/>
	<stop  offset="1" style="stop-color:#5DD0EF"/>
</linearGradient>
<path class="st8" d="M-47.3,25.2c-0.5,0-1,0.5-1,1.1s0.4,1.1,1,1.1l0,0h0c0.5,0,1-0.5,1-1.1C-46.3,25.7-46.7,25.2-47.3,25.2
	C-47.3,25.2-47.3,25.2-47.3,25.2z"/>
<linearGradient id="SVGID_10_" gradientUnits="userSpaceOnUse" x1="-39.0607" y1="31.772" x2="-39.0607" y2="30.3181">
	<stop  offset="0" style="stop-color:#D7FFFF"/>
	<stop  offset="1" style="stop-color:#5DD0EF"/>
</linearGradient>
<path class="st9" d="M-34.7,30.3h-8.7c-0.4,0-0.6,0.3-0.6,0.7c0,0.4,0.3,0.7,0.6,0.7h8.7c0.4,0,0.6-0.3,0.6-0.7
	S-34.4,30.3-34.7,30.3z"/>
<linearGradient id="SVGID_11_" gradientUnits="userSpaceOnUse" x1="-47.2853" y1="32.1355" x2="-47.2853" y2="29.9545">
	<stop  offset="0" style="stop-color:#D7FFFF"/>
	<stop  offset="1" style="stop-color:#5DD0EF"/>
</linearGradient>
<path class="st10" d="M-47.3,30c-0.5,0-1,0.5-1,1.1c0,0.6,0.4,1.1,1,1.1h0c0.5,0,1-0.5,1-1.1C-46.3,30.4-46.7,30-47.3,30
	C-47.3,30-47.3,30-47.3,30z"/>
<linearGradient id="SVGID_12_" gradientUnits="userSpaceOnUse" x1="-39.0612" y1="36.4973" x2="-39.0612" y2="35.0434">
	<stop  offset="0" style="stop-color:#D7FFFF"/>
	<stop  offset="1" style="stop-color:#5DD0EF"/>
</linearGradient>
<path class="st11" d="M-34.7,35h-8.7c-0.4,0-0.6,0.3-0.6,0.7s0.3,0.7,0.6,0.7h8.7c0.4,0,0.6-0.3,0.6-0.7S-34.4,35-34.7,35z"/>
<linearGradient id="SVGID_13_" gradientUnits="userSpaceOnUse" x1="-47.2859" y1="36.8608" x2="-47.2859" y2="34.6797">
	<stop  offset="0" style="stop-color:#D7FFFF"/>
	<stop  offset="1" style="stop-color:#5DD0EF"/>
</linearGradient>
<path class="st12" d="M-47.3,34.7c-0.5,0-1,0.5-1,1.1s0.4,1.1,1,1.1l0,0h0c0.5,0,1-0.5,1-1.1C-46.3,35.2-46.7,34.7-47.3,34.7
	C-47.3,34.7-47.3,34.7-47.3,34.7z"/>
<linearGradient id="SVGID_14_" gradientUnits="userSpaceOnUse" x1="14.3776" y1="42.8109" x2="14.3776" y2="1.7004">
	<stop  offset="0" style="stop-color:#D7FFFF"/>
	<stop  offset="1" style="stop-color:#5DD0EF"/>
</linearGradient>
<path class="st13" d="M25.7,15L19,10.7c0.4-0.9,0.5-1.8,0.5-2.8c0-3.4-2.3-6.2-5.1-6.2S9.3,4.5,9.3,7.9c0,1,0.2,1.9,0.5,2.8L3.2,15
	c-0.2,0.2-0.4,0.4-0.4,0.7V42c0,0.4,0.4,0.8,0.8,0.8h21.5c0.4,0,0.8-0.4,0.8-0.8V15.7C25.9,15.3,25.9,15.1,25.7,15z M11.3,7.8
	c0-2.3,1.4-4.1,3.2-4.1s3.2,1.9,3.2,4.1c0,0.6-0.1,1.2-0.3,1.7l-2.5-1.6c-0.2-0.1-0.5-0.1-0.8,0l-2.5,1.6
	C11.4,8.9,11.3,8.3,11.3,7.8z M24,40.4H5V16.5l6.5-4.2l0,0l0,0l3-2l2.3,1.5c-0.2,0.3-0.5,0.5-0.7,0.7c-0.4-0.3-1-0.5-1.5-0.5
	c-0.8,0-1.4,0.4-1.9,0.9c-0.1,0.1-0.1,0.1-0.2,0.2c-0.3,0.4-0.5,0.9-0.5,1.5c0,1.4,1.1,2.6,2.6,2.6S17,16,17,14.6
	c0-0.3-0.1-0.6-0.2-0.8c0.4-0.3,0.8-0.7,1.1-1.1l5.9,3.8L24,40.4L24,40.4z M15.6,14c0,0.6-0.5,1.1-1.1,1.1s-1.1-0.5-1.1-1.1
	c0-0.1,0-0.1,0-0.2c0.3,0.1,0.7,0.2,1.1,0.2s0.7-0.1,1.1-0.2C15.6,14,15.6,14,15.6,14z"/>
<g>
	<linearGradient id="SVGID_15_" gradientUnits="userSpaceOnUse" x1="14.2341" y1="34.1018" x2="14.2341" y2="24.3342">
		<stop  offset="0" style="stop-color:#D7FFFF"/>
		<stop  offset="1" style="stop-color:#5DD0EF"/>
	</linearGradient>
	<path class="st14" d="M8.7,26.8c0-1.4,1-2.5,2.5-2.5c1.5,0,2.5,1.1,2.5,2.5c0,1.4-1,2.5-2.5,2.5S8.7,28.2,8.7,26.8z M16.7,24.4h1.8
		l-6.7,9.5H10L16.7,24.4z M12,26.8c0-0.6-0.3-1-0.8-1c-0.5,0-0.8,0.3-0.8,1c0,0.6,0.3,1,0.8,1C11.6,27.8,12,27.4,12,26.8z
		 M14.8,31.6c0-1.4,1-2.5,2.5-2.5c1.5,0,2.5,1.1,2.5,2.5c0,1.4-1,2.5-2.5,2.5C15.8,34.1,14.8,33,14.8,31.6z M18.1,31.6
		c0-0.6-0.4-1-0.8-1c-0.5,0-0.8,0.3-0.8,1c0,0.6,0.3,1,0.8,1C17.8,32.6,18.1,32.3,18.1,31.6z"/>
</g>
<linearGradient id="SVGID_16_" gradientUnits="userSpaceOnUse" x1="76.0271" y1="34.7549" x2="76.0271" y2="6.773">
	<stop  offset="0" style="stop-color:#D7FFFF"/>
	<stop  offset="1" style="stop-color:#5DD0EF"/>
</linearGradient>
<path class="st15" d="M76.1,34.8c-7.7,0-14-6.3-14-14c0-7,5.3-13,12.2-13.9c0.4-0.1,0.8,0.2,0.9,0.5c0.2,0.4,0.1,0.8-0.2,1.1
	c-2.1,1.8-3.4,4.5-3.4,7.3c0,5.3,4.3,9.5,9.5,9.5c2.8,0,5.4-1.2,7.3-3.4c0.3-0.3,0.7-0.4,1.1-0.2c0.4,0.2,0.6,0.5,0.5,0.9
	C89.1,29.5,83.1,34.8,76.1,34.8z M71.8,9.3c-4.7,1.8-7.9,6.3-7.9,11.4c0,6.7,5.5,12.2,12.2,12.2c5.2,0,9.7-3.3,11.4-7.9
	c-1.9,1.3-4.1,2-6.4,2c-6.3,0-11.4-5.1-11.4-11.4C69.8,13.3,70.5,11.1,71.8,9.3z"/>
<linearGradient id="SVGID_17_" gradientUnits="userSpaceOnUse" x1="82.0002" y1="18.0463" x2="82.0002" y2="11.8326">
	<stop  offset="0" style="stop-color:#D7FFFF"/>
	<stop  offset="1" style="stop-color:#5DD0EF"/>
</linearGradient>
<path class="st16" d="M82.1,11.9l0.9,1.9l2.1,0.3c0.1,0,0.1,0.1,0.1,0.2l-1.6,1.5l0.3,2c0,0.1-0.1,0.3-0.3,0.2l-1.8-1l-1.8,1
	c-0.1,0.1-0.3,0-0.3-0.2l0.3-2l-1.5-1.4c-0.1-0.1,0-0.3,0.1-0.3l2-0.3l0.9-1.9C81.9,11.8,82,11.8,82.1,11.9z"/>
<linearGradient id="SVGID_18_" gradientUnits="userSpaceOnUse" x1="54.3387" y1="24.251" x2="54.3387" y2="17.8783">
	<stop  offset="0" style="stop-color:#D7FFFF"/>
	<stop  offset="1" style="stop-color:#5DD0EF"/>
</linearGradient>
<path class="st17" d="M54.4,17.9l1,2c0,0,0,0,0.1,0l2.2,0.3c0.1,0,0.1,0.1,0,0.1l-1.6,1.5c0,0,0,0,0,0.1l0.4,2.2
	c0,0.1-0.1,0.1-0.1,0.1l-1.9-1c0,0-0.1,0-0.1,0l-1.9,1c-0.1,0-0.1,0-0.1-0.1l0.4-2.2c0,0,0-0.1,0-0.1L51,20.4c0,0,0-0.1,0-0.1
	l2.2-0.3c0,0,0,0,0.1,0l1-2C54.3,17.9,54.4,17.9,54.4,17.9z"/>
<linearGradient id="SVGID_19_" gradientUnits="userSpaceOnUse" x1="63.6484" y1="41.7355" x2="63.6484" y2="31.9311">
	<stop  offset="0" style="stop-color:#D7FFFF"/>
	<stop  offset="1" style="stop-color:#5DD0EF"/>
</linearGradient>
<path class="st18" d="M63.7,32l1.5,3.1c0,0,0,0,0.1,0l3.4,0.5c0.1,0,0.1,0.1,0,0.1l-2.5,2.4c0,0,0,0,0,0.1l0.6,3.4
	c0,0.1-0.1,0.1-0.1,0.1l-3.1-1.6c0,0-0.1,0-0.1,0l-3.1,1.6c-0.1,0-0.1,0-0.1-0.1l0.6-3.4c0,0,0-0.1,0-0.1l-2.5-2.4c0,0,0-0.1,0-0.1
	l3.4-0.5c0,0,0,0,0.1,0l1.5-3.1C63.6,31.9,63.7,31.9,63.7,32z"/>
<linearGradient id="SVGID_20_" gradientUnits="userSpaceOnUse" x1="128.6154" y1="42.8108" x2="128.6154" y2="6.4407">
	<stop  offset="0" style="stop-color:#D7FFFF"/>
	<stop  offset="1" style="stop-color:#5DD0EF"/>
</linearGradient>
<path class="st19" d="M140,18.9c-0.2-0.4-0.6-0.6-1-0.6h-8.2l6-10.3c0.2-0.3,0.2-0.7,0-1.1c-0.2-0.3-0.5-0.5-0.9-0.5h-12.2
	c-0.5,0-0.9,0.3-1,0.7l-5.7,17.1c-0.1,0.3-0.1,0.7,0.1,1c0.2,0.3,0.5,0.4,0.9,0.4h8.6l-4.6,15.8c-0.1,0.5,0.1,1,0.6,1.3
	c0.2,0.1,0.3,0.1,0.5,0.1c0.3,0,0.7-0.2,0.9-0.5L140,20C140.2,19.7,140.2,19.3,140,18.9z M126,35.9l3.2-11c0.1-0.3,0-0.7-0.2-0.9
	s-0.5-0.4-0.9-0.4h-8.5l5-14.9h9.5l-6,10.3c-0.2,0.3-0.2,0.7,0,1.1c0.2,0.3,0.5,0.5,0.9,0.5h8L126,35.9z"/>
<g>
	<g>
		<linearGradient id="SVGID_21_" gradientUnits="userSpaceOnUse" x1="183.3852" y1="36.422" x2="183.3852" y2="9.2359">
			<stop  offset="0" style="stop-color:#D7FFFF"/>
			<stop  offset="1" style="stop-color:#5DD0EF"/>
		</linearGradient>
		<path class="st20" d="M191.7,29.6c-0.1,0.1-0.2,0.2-0.3,0.3C191.5,29.8,191.6,29.7,191.7,29.6c-0.6,0.8-1.3,1.5-2.1,2.1
			c0.1-0.1,0.2-0.2,0.3-0.2c-0.7,0.6-1.5,1-2.3,1.4c0.1-0.1,0.2-0.1,0.4-0.2c-0.8,0.3-1.6,0.6-2.5,0.7c0.1,0,0.3,0,0.4-0.1
			c-0.9,0.1-1.7,0.1-2.6,0c0.1,0,0.3,0,0.4,0.1c-0.9-0.1-1.7-0.3-2.5-0.7c0.1,0.1,0.2,0.1,0.4,0.2c-0.8-0.3-1.6-0.8-2.3-1.3
			c0.1,0.1,0.2,0.2,0.3,0.2c-0.8-0.6-1.5-1.3-2.1-2.1c0.1,0.1,0.2,0.2,0.2,0.3c-0.6-0.8-1.2-1.8-1.6-2.7c0.1,0.1,0.1,0.2,0.2,0.4
			c-0.4-1.1-0.7-2.2-0.9-3.3c0,0.1,0,0.3,0.1,0.4c-0.2-1.2-0.2-2.4,0-3.6c0,0.1,0,0.3-0.1,0.4c0.2-1.1,0.5-2.3,0.9-3.3
			c-0.1,0.1-0.1,0.2-0.2,0.4c0.4-1,0.9-1.9,1.6-2.7c-0.1,0.1-0.2,0.2-0.2,0.3c0.6-0.8,1.3-1.5,2.1-2.1c-0.1,0.1-0.2,0.2-0.3,0.2
			c0.7-0.5,1.5-1,2.3-1.3c-0.1,0.1-0.2,0.1-0.4,0.2c0.8-0.3,1.6-0.6,2.5-0.7c-0.1,0-0.3,0-0.4,0.1c0.9-0.1,1.7-0.1,2.6,0
			c-0.1,0-0.3,0-0.4-0.1c0.9,0.1,1.7,0.3,2.5,0.7c-0.1-0.1-0.2-0.1-0.4-0.2c0.8,0.4,1.6,0.8,2.3,1.4c-0.1-0.1-0.2-0.2-0.3-0.2
			c0.8,0.6,1.4,1.3,2,2c-0.1-0.1-0.2-0.2-0.2-0.3c0.1,0.1,0.2,0.2,0.3,0.3c0.2,0.3,0.5,0.6,0.9,0.7c0.4,0.1,0.9,0.1,1.2-0.2
			c0.3-0.2,0.6-0.5,0.7-0.9c0.1-0.4,0.1-0.9-0.2-1.2c-1.3-1.8-3-3.4-5-4.3c-0.6-0.2-1.1-0.5-1.7-0.6c-0.6-0.2-1.2-0.3-1.8-0.3
			c-1-0.1-2.1-0.1-3.1,0.1c-1.8,0.3-3.6,1.1-5.1,2.3c-1.5,1.2-2.8,2.7-3.7,4.4c-1,1.9-1.5,3.9-1.6,6.1c-0.1,1.1,0,2.2,0.2,3.3
			c0.1,0.9,0.4,1.8,0.7,2.7c0.7,1.9,1.8,3.6,3.2,5c1.4,1.3,3.1,2.4,5,2.9c2,0.6,4.2,0.6,6.2,0c2.1-0.6,4.1-1.8,5.6-3.4
			c0.4-0.4,0.8-0.9,1.1-1.4c0.2-0.3,0.3-0.8,0.2-1.2c-0.1-0.4-0.4-0.7-0.7-0.9c-0.4-0.2-0.8-0.3-1.2-0.2c-0.1,0.1-0.2,0.1-0.4,0.2
			C192,29.2,191.8,29.4,191.7,29.6L191.7,29.6z"/>
	</g>
</g>
<g>
	<g>
		<path class="st21" d="M168.3,21.2c0.6,0,1.1,0,1.7,0c1.4,0,2.7,0,4.1,0c1.6,0,3.3,0,4.9,0c1.4,0,2.8,0,4.2,0c0.7,0,1.4,0,2.1,0
			c0,0,0,0,0,0c0.4,0,0.8-0.2,1.1-0.4c0.3-0.3,0.5-0.7,0.4-1.1c0-0.4-0.1-0.8-0.4-1.1c-0.3-0.3-0.7-0.4-1.1-0.4c-0.6,0-1.1,0-1.7,0
			c-1.4,0-2.7,0-4.1,0c-1.6,0-3.3,0-4.9,0c-1.4,0-2.8,0-4.2,0c-0.7,0-1.4,0-2.1,0c0,0,0,0,0,0c-0.4,0-0.8,0.2-1.1,0.4
			c-0.3,0.3-0.5,0.7-0.4,1.1c0,0.4,0.1,0.8,0.4,1.1C167.5,21,167.9,21.2,168.3,21.2L168.3,21.2z"/>
	</g>
</g>
<g>
	<g>
		<path class="st22" d="M185.3,24.5c-0.6,0-1.1,0-1.7,0c-1.4,0-2.7,0-4.1,0c-1.6,0-3.3,0-4.9,0c-1.4,0-2.8,0-4.2,0
			c-0.7,0-1.4,0-2.1,0c0,0,0,0,0,0c-0.4,0-0.8,0.2-1.1,0.4c-0.3,0.3-0.5,0.7-0.4,1.1c0,0.4,0.1,0.8,0.4,1.1c0.3,0.3,0.7,0.4,1.1,0.4
			c0.6,0,1.1,0,1.7,0c1.4,0,2.7,0,4.1,0c1.6,0,3.3,0,4.9,0c1.4,0,2.8,0,4.2,0c0.7,0,1.4,0,2.1,0c0,0,0,0,0,0c0.4,0,0.8-0.2,1.1-0.4
			c0.3-0.3,0.5-0.7,0.4-1.1c0-0.4-0.1-0.8-0.4-1.1C186.1,24.7,185.8,24.5,185.3,24.5L185.3,24.5z"/>
	</g>
</g>
<g>
	<linearGradient id="SVGID_22_" gradientUnits="userSpaceOnUse" x1="245.0405" y1="28.0729" x2="245.0405" y2="17.467">
		<stop  offset="0" style="stop-color:#D7FFFF"/>
		<stop  offset="1" style="stop-color:#5DD0EF"/>
	</linearGradient>
	<path class="st23" d="M248,26.5c0,0.5,0,1,0,1.5c-1.2,0.4-3.5-0.4-4.7-1.9c-1.4-1.7-1.5-4.2-0.3-6.1c1.2-1.9,3.5-2.7,5.1-2.4
		c0,0.5,0,1,0,1.5c-1.2-0.1-2.3,0.2-3.2,1.1c-0.5,0.5-0.9,1.2-0.9,1.8c1,0,2,0,3,0c0,0.5,0,1,0,1.6c-1,0-2,0-3,0
		C244.1,25.3,245.6,26.4,248,26.5z"/>
	<linearGradient id="SVGID_23_" gradientUnits="userSpaceOnUse" x1="235.9722" y1="28.0708" x2="235.9722" y2="17.4663">
		<stop  offset="0" style="stop-color:#D7FFFF"/>
		<stop  offset="1" style="stop-color:#5DD0EF"/>
	</linearGradient>
	<path class="st24" d="M238.9,17.5c0,0.5,0,1,0,1.5c-1.4-0.1-2.5,0.3-3.4,1.3c-0.6,0.8-0.9,1.6-0.9,2.6c0.1,1.8,1.6,3.7,4.3,3.5
		c0,0.5,0,1,0,1.5c-1.5,0.3-3.7-0.4-5-2.3c-1.2-1.8-1.2-4.2,0-6C235.2,17.9,237.5,17.2,238.9,17.5z"/>
</g>
<linearGradient id="SVGID_24_" gradientUnits="userSpaceOnUse" x1="240.4972" y1="39.4812" x2="240.4972" y2="6.058">
	<stop  offset="0" style="stop-color:#D7FFFF"/>
	<stop  offset="1" style="stop-color:#5DD0EF"/>
</linearGradient>
<path class="st25" d="M239.7,38l-2.8,1.1c-2.1,0.9-4.6-0.1-5.5-2.3l-1.2-2.8c-0.2-0.5-0.6-0.9-1.1-1.1l-2.8-1.2
	c-2.1-0.9-3.1-3.4-2.3-5.5l1.1-2.8c0.2-0.5,0.2-1,0-1.5l-1.1-2.8c-0.9-2.1,0.1-4.6,2.3-5.5l2.8-1.2c0.5-0.2,0.9-0.6,1.1-1.1l1.2-2.8
	c0.9-2.1,3.4-3.1,5.5-2.3l2.8,1.1c0.5,0.2,1,0.2,1.5,0l2.8-1.1c2.1-0.9,4.6,0.1,5.5,2.3l1.2,2.8c0.2,0.5,0.6,0.9,1.1,1.1l2.8,1.2
	c2.1,0.9,3.1,3.4,2.3,5.5l-1.1,2.8c-0.2,0.5-0.2,1,0,1.5l1.1,2.8c0.9,2.1-0.1,4.6-2.3,5.5l-2.8,1.2c-0.5,0.2-0.9,0.6-1.1,1.1
	l-1.2,2.8c-0.9,2.1-3.4,3.1-5.5,2.3l-2.8-1.1C240.8,37.8,240.2,37.8,239.7,38z M242.1,36l2.8,1.1c1,0.4,2.2-0.1,2.6-1.1l1.2-2.8
	c0.4-1,1.2-1.8,2.2-2.3l2.8-1.2c1-0.4,1.5-1.6,1.1-2.6l-1.1-2.8c-0.4-1-0.4-2.2,0-3.2l1.1-2.8c0.4-1-0.1-2.2-1.1-2.6l-2.8-1.2
	c-1-0.4-1.8-1.2-2.2-2.3l-1.2-2.8c-0.4-1-1.6-1.5-2.6-1.1l-2.8,1.1c-1,0.4-2.2,0.4-3.2,0l-2.8-1.1c-1-0.4-2.2,0.1-2.6,1.1l-1.2,2.8
	c-0.4,1-1.2,1.8-2.2,2.3l-2.8,1.2c-1,0.4-1.5,1.6-1.1,2.6l1.1,2.8c0.4,1,0.4,2.2,0,3.2l-1.1,2.8c-0.4,1,0.1,2.2,1.1,2.6L230,31
	c1,0.4,1.8,1.2,2.2,2.3l1.2,2.8c0.4,1,1.6,1.5,2.6,1.1l2.8-1.1C239.9,35.5,241.1,35.5,242.1,36z"/>
<linearGradient id="SVGID_25_" gradientUnits="userSpaceOnUse" x1="124.0818" y1="-30.8026" x2="124.0818" y2="-127.7253">
	<stop  offset="0" style="stop-color:#D7FFFF"/>
	<stop  offset="1" style="stop-color:#5DD0EF"/>
</linearGradient>
<rect x="55.9" y="-127.7" class="st26" width="136.4" height="96.9"/>
<linearGradient id="SVGID_26_" gradientUnits="userSpaceOnUse" x1="-97.2373" y1="40.5172" x2="-97.2373" y2="19.5186">
	<stop  offset="0" style="stop-color:#D7FFFF"/>
	<stop  offset="1" style="stop-color:#5DD0EF"/>
</linearGradient>
<path class="st27" d="M-106.2,19.5c-1.7,0-3,1.3-3,3v15c0,1.7,1.3,3,3,3h18c1.7,0,3-1.3,3-3v-15c0-1.7-1.3-3-3-3h-15H-106.2z
	 M-88.5,38.4H-106c-0.6,0-1.1-0.5-1.1-1.1V22.7c0-0.6,0.5-1.1,1.1-1.1h17.5c0.6,0,1.1,0.5,1.1,1.1v14.7
	C-87.4,38-87.9,38.4-88.5,38.4z"/>
</svg>
