<?xml version="1.0" encoding="utf-8"?>
<!-- Generator: Adobe Illustrator 21.0.2, SVG Export Plug-In . SVG Version: 6.00 Build 0)  -->
<svg version="1.1" id="Calque_1" xmlns="http://www.w3.org/2000/svg" xmlns:xlink="http://www.w3.org/1999/xlink" x="0px" y="0px"
	 viewBox="0 0 34.6 34.5" style="enable-background:new 0 0 34.6 34.5;" xml:space="preserve">
<style type="text/css">
	.st0{fill:url(#SVGID_1_);}
	.st1{fill:url(#SVGID_2_);}
	.st2{fill:url(#SVGID_3_);}
	.st3{fill:none;stroke:url(#SVGID_4_);stroke-width:1.5;stroke-miterlimit:10;}
	.st4{fill:url(#SVGID_5_);}
	.st5{fill:url(#SVGID_6_);}
	.st6{fill:url(#SVGID_7_);}
	.st7{fill:url(#SVGID_8_);}
	.st8{fill:url(#SVGID_9_);}
	.st9{fill:url(#SVGID_10_);}
	.st10{fill:url(#SVGID_11_);}
	.st11{fill:url(#SVGID_12_);}
	.st12{fill:url(#SVGID_13_);}
	.st13{fill:url(#SVGID_14_);}
	.st14{fill:url(#SVGID_15_);}
	.st15{fill:url(#SVGID_16_);}
	.st16{fill:url(#SVGID_17_);}
	.st17{fill:url(#SVGID_18_);}
	.st18{fill:url(#SVGID_19_);}
	.st19{fill:url(#SVGID_20_);}
	.st20{fill:url(#SVGID_21_);}
	.st21{fill:#87DFF3;}
	.st22{fill:#B4F1F9;}
	.st23{fill:url(#SVGID_22_);}
	.st24{fill:url(#SVGID_23_);}
	.st25{fill:url(#SVGID_24_);}
	.st26{fill:url(#SVGID_25_);}
	.st27{fill:url(#SVGID_26_);}
</style>
<linearGradient id="SVGID_1_" gradientUnits="userSpaceOnUse" x1="-317.8246" y1="30.9683" x2="-317.8246" y2="-1.6503">
	<stop  offset="0" style="stop-color:#D7FFFF"/>
	<stop  offset="1" style="stop-color:#5DD0EF"/>
</linearGradient>
<path class="st0" d="M-304.5,11.6c0-7.5-6.3-13.6-13.9-13.2c-6.8,0.3-12.4,5.9-12.7,12.6c-0.1,3.4,1,6.7,3.2,9.2
	c2.1,2.4,3.2,5.7,3.2,9.2V30c0,0.6,0.4,1,1,1h11.7c0.6,0,1-0.4,1-1v-0.7c0-3.3,1.2-6.5,3.5-9.4C-305.6,17.6-304.5,14.7-304.5,11.6z
	 M-312.9,29h-9.7c-0.1-3.8-1.4-7.4-3.7-10.1c-1.9-2.2-2.8-5-2.7-7.8c0.3-5.8,5-10.5,10.7-10.8c6.5-0.3,11.8,4.9,11.8,11.3
	c0,2.6-0.9,5-2.5,7.1C-311.5,21.8-312.9,25.4-312.9,29z"/>
<linearGradient id="SVGID_2_" gradientUnits="userSpaceOnUse" x1="-317.6715" y1="35.2683" x2="-317.6715" y2="33.2683">
	<stop  offset="0" style="stop-color:#D7FFFF"/>
	<stop  offset="1" style="stop-color:#5DD0EF"/>
</linearGradient>
<path class="st1" d="M-312,33.3h-11.3c-0.6,0-1,0.4-1,1s0.4,1,1,1h11.3c0.6,0,1-0.4,1-1S-311.4,33.3-312,33.3z"/>
<linearGradient id="SVGID_3_" gradientUnits="userSpaceOnUse" x1="-317.6715" y1="38.9683" x2="-317.6715" y2="36.9683">
	<stop  offset="0" style="stop-color:#D7FFFF"/>
	<stop  offset="1" style="stop-color:#5DD0EF"/>
</linearGradient>
<path class="st2" d="M-314,37h-7.3c-0.6,0-1,0.4-1,1s0.4,1,1,1h7.3c0.6,0,1-0.4,1-1S-313.4,37-314,37z"/>
<linearGradient id="SVGID_4_" gradientUnits="userSpaceOnUse" x1="-318.025" y1="29.0408" x2="-318.025" y2="9.6736">
	<stop  offset="0" style="stop-color:#D7FFFF"/>
	<stop  offset="1" style="stop-color:#5DD0EF"/>
</linearGradient>
<path class="st3" d="M-318,29c0.1-5.9,0-11.8-0.3-17.7c1.5,1.2,2.9,2.7,3.6,4.5s0.6,4-0.6,5.5c-0.9,1.2-2.3,1.9-3,3.2
	c-2.3-1.5-3.9-4.4-3.2-7c0.5-2.1,2.2-3.8,2.7-5.8"/>
<linearGradient id="SVGID_5_" gradientUnits="userSpaceOnUse" x1="-260.2889" y1="28.4593" x2="-260.2889" y2="19.4601">
	<stop  offset="0" style="stop-color:#D7FFFF"/>
	<stop  offset="1" style="stop-color:#5DD0EF"/>
</linearGradient>
<path class="st4" d="M-261.8,25V27c0,0.8,0.7,1.5,1.5,1.5s1.5-0.7,1.5-1.5V25c0.9-0.5,1.5-1.5,1.5-2.6c0-1.7-1.3-3-3-3
	c-1.7,0-3,1.3-3,3C-263.3,23.6-262.7,24.5-261.8,25z"/>
<g>
	<g>
		<linearGradient id="SVGID_6_" gradientUnits="userSpaceOnUse" x1="-259.8307" y1="15.327" x2="-259.8307" y2="-1.1703">
			<stop  offset="0" style="stop-color:#D7FFFF"/>
			<stop  offset="1" style="stop-color:#5DD0EF"/>
		</linearGradient>
		<path class="st5" d="M-252.8,9.3C-252.8,9.3-252.8,9.3-252.8,9.3l0-1.5c-0.1-4.7-3.7-7-7-7c-3.3,0-7,2.3-7,7v6
			c0,0.8-0.1,1.5-0.9,1.5c-0.8,0-1.1-0.7-1.1-1.5V8.2c0-4.8,3.6-9,8.4-9.3c5.2-0.3,9.6,3.8,9.6,9v1.4c0,0,0,0,0,0L-252.8,9.3z"/>
	</g>
</g>
<linearGradient id="SVGID_7_" gradientUnits="userSpaceOnUse" x1="-204.0561" y1="36.7529" x2="-204.0561" y2="3.5926">
	<stop  offset="0" style="stop-color:#D7FFFF"/>
	<stop  offset="1" style="stop-color:#5DD0EF"/>
</linearGradient>
<path class="st6" d="M-192.9,12.8c0-0.2-0.1-0.4-0.2-0.5l-7.4-8.5c-0.1-0.1-0.3-0.2-0.5-0.2H-213c-1.8,0-2.2,0.6-2.2,2.6v27.9
	c0,2,0.4,2.6,2.2,2.6h17.9c1.8,0,2.2-0.6,2.2-2.6V12.8z M-200.7,6.6l5.4,6.2l-4,0c-0.5,0-1.3-0.8-1.3-1.4L-200.7,6.6z M-196.1,34.3
	H-212c-1.1,0-1,0-1-1.2V8.2c0-1.2-0.1-2.2,0.9-2.2h9.7v5.3c0,1.4,1.9,3.1,3.1,3.1h4.3v18.7C-195,34.3-195,34.3-196.1,34.3z"/>
<linearGradient id="SVGID_8_" gradientUnits="userSpaceOnUse" x1="-202.1129" y1="20.9888" x2="-202.1129" y2="19.5348">
	<stop  offset="0" style="stop-color:#D7FFFF"/>
	<stop  offset="1" style="stop-color:#5DD0EF"/>
</linearGradient>
<path class="st7" d="M-197.8,19.5h-8.7c-0.4,0-0.6,0.3-0.6,0.7s0.3,0.7,0.6,0.7h8.7c0.4,0,0.6-0.3,0.6-0.7S-197.4,19.5-197.8,19.5z"
	/>
<linearGradient id="SVGID_9_" gradientUnits="userSpaceOnUse" x1="-210.3375" y1="21.3522" x2="-210.3375" y2="19.1712">
	<stop  offset="0" style="stop-color:#D7FFFF"/>
	<stop  offset="1" style="stop-color:#5DD0EF"/>
</linearGradient>
<path class="st8" d="M-210.3,19.2c-0.5,0-1,0.5-1,1.1s0.4,1.1,1,1.1l0,0h0c0.5,0,1-0.5,1-1.1C-209.4,19.7-209.8,19.2-210.3,19.2
	C-210.3,19.2-210.3,19.2-210.3,19.2z"/>
<linearGradient id="SVGID_10_" gradientUnits="userSpaceOnUse" x1="-202.1124" y1="25.714" x2="-202.1124" y2="24.2601">
	<stop  offset="0" style="stop-color:#D7FFFF"/>
	<stop  offset="1" style="stop-color:#5DD0EF"/>
</linearGradient>
<path class="st9" d="M-197.8,24.3h-8.7c-0.4,0-0.6,0.3-0.6,0.7c0,0.4,0.3,0.7,0.6,0.7h8.7c0.4,0,0.6-0.3,0.6-0.7
	S-197.4,24.3-197.8,24.3z"/>
<linearGradient id="SVGID_11_" gradientUnits="userSpaceOnUse" x1="-210.337" y1="26.0775" x2="-210.337" y2="23.8964">
	<stop  offset="0" style="stop-color:#D7FFFF"/>
	<stop  offset="1" style="stop-color:#5DD0EF"/>
</linearGradient>
<path class="st10" d="M-210.3,23.9c-0.5,0-1,0.5-1,1.1c0,0.6,0.4,1.1,1,1.1h0c0.5,0,1-0.5,1-1.1C-209.4,24.4-209.8,23.9-210.3,23.9
	C-210.3,23.9-210.3,23.9-210.3,23.9z"/>
<linearGradient id="SVGID_12_" gradientUnits="userSpaceOnUse" x1="-202.1129" y1="30.4393" x2="-202.1129" y2="28.9853">
	<stop  offset="0" style="stop-color:#D7FFFF"/>
	<stop  offset="1" style="stop-color:#5DD0EF"/>
</linearGradient>
<path class="st11" d="M-197.8,29h-8.7c-0.4,0-0.6,0.3-0.6,0.7s0.3,0.7,0.6,0.7h8.7c0.4,0,0.6-0.3,0.6-0.7S-197.4,29-197.8,29z"/>
<linearGradient id="SVGID_13_" gradientUnits="userSpaceOnUse" x1="-210.3375" y1="30.8027" x2="-210.3375" y2="28.6217">
	<stop  offset="0" style="stop-color:#D7FFFF"/>
	<stop  offset="1" style="stop-color:#5DD0EF"/>
</linearGradient>
<path class="st12" d="M-210.3,28.6c-0.5,0-1,0.5-1,1.1s0.4,1.1,1,1.1l0,0h0c0.5,0,1-0.5,1-1.1C-209.4,29.1-209.8,28.6-210.3,28.6
	C-210.3,28.6-210.3,28.6-210.3,28.6z"/>
<linearGradient id="SVGID_14_" gradientUnits="userSpaceOnUse" x1="-148.6741" y1="36.7529" x2="-148.6741" y2="-4.3576">
	<stop  offset="0" style="stop-color:#D7FFFF"/>
	<stop  offset="1" style="stop-color:#5DD0EF"/>
</linearGradient>
<path class="st13" d="M-137.4,8.9l-6.7-4.3c0.4-0.9,0.5-1.8,0.5-2.8c0-3.4-2.3-6.2-5.1-6.2s-5.1,2.8-5.1,6.2c0,1,0.2,1.9,0.5,2.8
	l-6.7,4.3c-0.2,0.2-0.4,0.4-0.4,0.7v26.3c0,0.4,0.4,0.8,0.8,0.8h21.5c0.4,0,0.8-0.4,0.8-0.8V9.6C-137.1,9.2-137.2,9.1-137.4,8.9z
	 M-151.7,1.7c0-2.3,1.4-4.1,3.2-4.1s3.2,1.9,3.2,4.1c0,0.6-0.1,1.2-0.3,1.7l-2.5-1.6c-0.2-0.1-0.5-0.1-0.8,0l-2.5,1.6
	C-151.6,2.9-151.7,2.3-151.7,1.7z M-139.1,34.4H-158V10.5l6.5-4.2l0,0l0,0l3-2l2.3,1.5c-0.2,0.3-0.5,0.5-0.7,0.7
	c-0.4-0.3-1-0.5-1.5-0.5c-0.8,0-1.4,0.4-1.9,0.9c-0.1,0.1-0.1,0.1-0.2,0.2c-0.3,0.4-0.5,0.9-0.5,1.5c0,1.4,1.1,2.6,2.6,2.6
	s2.6-1.1,2.6-2.6c0-0.3-0.1-0.6-0.2-0.8c0.4-0.3,0.8-0.7,1.1-1.1l5.9,3.8L-139.1,34.4L-139.1,34.4z M-147.5,7.9
	c0,0.6-0.5,1.1-1.1,1.1s-1.1-0.5-1.1-1.1c0-0.1,0-0.1,0-0.2c0.3,0.1,0.7,0.2,1.1,0.2s0.7-0.1,1.1-0.2
	C-147.5,7.9-147.5,7.9-147.5,7.9z"/>
<g>
	<linearGradient id="SVGID_15_" gradientUnits="userSpaceOnUse" x1="-148.8176" y1="28.0438" x2="-148.8176" y2="18.2762">
		<stop  offset="0" style="stop-color:#D7FFFF"/>
		<stop  offset="1" style="stop-color:#5DD0EF"/>
	</linearGradient>
	<path class="st14" d="M-154.4,20.7c0-1.4,1-2.5,2.5-2.5c1.5,0,2.5,1.1,2.5,2.5c0,1.4-1,2.5-2.5,2.5S-154.4,22.1-154.4,20.7z
		 M-146.4,18.4h1.8l-6.7,9.5h-1.8L-146.4,18.4z M-151.1,20.7c0-0.6-0.3-1-0.8-1c-0.5,0-0.8,0.3-0.8,1c0,0.6,0.3,1,0.8,1
		C-151.4,21.7-151.1,21.4-151.1,20.7z M-148.2,25.6c0-1.4,1-2.5,2.5-2.5c1.5,0,2.5,1.1,2.5,2.5c0,1.4-1,2.5-2.5,2.5
		C-147.3,28-148.2,26.9-148.2,25.6z M-144.9,25.6c0-0.6-0.4-1-0.8-1c-0.5,0-0.8,0.3-0.8,1c0,0.6,0.3,1,0.8,1
		C-145.3,26.5-144.9,26.2-144.9,25.6z"/>
</g>
<linearGradient id="SVGID_16_" gradientUnits="userSpaceOnUse" x1="-87.0246" y1="28.6969" x2="-87.0246" y2="0.715">
	<stop  offset="0" style="stop-color:#D7FFFF"/>
	<stop  offset="1" style="stop-color:#5DD0EF"/>
</linearGradient>
<path class="st15" d="M-87,28.7c-7.7,0-14-6.3-14-14c0-7,5.3-13,12.2-13.9c0.4-0.1,0.8,0.2,0.9,0.5c0.2,0.4,0.1,0.8-0.2,1.1
	c-2.1,1.8-3.4,4.5-3.4,7.3c0,5.3,4.3,9.5,9.5,9.5c2.8,0,5.4-1.2,7.3-3.4c0.3-0.3,0.7-0.4,1.1-0.2c0.4,0.2,0.6,0.5,0.5,0.9
	C-73.9,23.4-79.9,28.7-87,28.7z M-91.3,3.2C-96,5-99.2,9.5-99.2,14.6c0,6.7,5.5,12.2,12.2,12.2c5.2,0,9.7-3.3,11.4-7.9
	c-1.9,1.3-4.1,2-6.4,2c-6.3,0-11.4-5.1-11.4-11.4C-93.3,7.3-92.6,5.1-91.3,3.2z"/>
<linearGradient id="SVGID_17_" gradientUnits="userSpaceOnUse" x1="-81.0515" y1="11.9883" x2="-81.0515" y2="5.7746">
	<stop  offset="0" style="stop-color:#D7FFFF"/>
	<stop  offset="1" style="stop-color:#5DD0EF"/>
</linearGradient>
<path class="st16" d="M-81,5.9l0.9,1.9l2.1,0.3c0.1,0,0.1,0.1,0.1,0.2l-1.6,1.5l0.3,2c0,0.1-0.1,0.3-0.3,0.2l-1.8-1l-1.8,1
	c-0.1,0.1-0.3,0-0.3-0.2l0.3-2l-1.5-1.4c-0.1-0.1,0-0.3,0.1-0.3l2-0.3l0.9-1.9C-81.2,5.7-81,5.7-81,5.9z"/>
<linearGradient id="SVGID_18_" gradientUnits="userSpaceOnUse" x1="-108.713" y1="18.193" x2="-108.713" y2="11.8203">
	<stop  offset="0" style="stop-color:#D7FFFF"/>
	<stop  offset="1" style="stop-color:#5DD0EF"/>
</linearGradient>
<path class="st17" d="M-108.6,11.9l1,2c0,0,0,0,0.1,0l2.2,0.3c0.1,0,0.1,0.1,0,0.1l-1.6,1.5c0,0,0,0,0,0.1l0.4,2.2
	c0,0.1-0.1,0.1-0.1,0.1l-1.9-1c0,0-0.1,0-0.1,0l-1.9,1c-0.1,0-0.1,0-0.1-0.1l0.4-2.2c0,0,0-0.1,0-0.1l-1.6-1.5c0,0,0-0.1,0-0.1
	l2.2-0.3c0,0,0,0,0.1,0l1-2C-108.8,11.8-108.7,11.8-108.6,11.9z"/>
<linearGradient id="SVGID_19_" gradientUnits="userSpaceOnUse" x1="-99.4032" y1="35.6775" x2="-99.4032" y2="25.873">
	<stop  offset="0" style="stop-color:#D7FFFF"/>
	<stop  offset="1" style="stop-color:#5DD0EF"/>
</linearGradient>
<path class="st18" d="M-99.3,25.9l1.5,3.1c0,0,0,0,0.1,0l3.4,0.5c0.1,0,0.1,0.1,0,0.1l-2.5,2.4c0,0,0,0,0,0.1l0.6,3.4
	c0,0.1-0.1,0.1-0.1,0.1l-3.1-1.6c0,0-0.1,0-0.1,0l-3.1,1.6c-0.1,0-0.1,0-0.1-0.1l0.6-3.4c0,0,0-0.1,0-0.1l-2.5-2.4c0,0,0-0.1,0-0.1
	l3.4-0.5c0,0,0,0,0.1,0l1.5-3.1C-99.4,25.9-99.4,25.9-99.3,25.9z"/>
<linearGradient id="SVGID_20_" gradientUnits="userSpaceOnUse" x1="-34.4362" y1="36.7528" x2="-34.4362" y2="0.3827">
	<stop  offset="0" style="stop-color:#D7FFFF"/>
	<stop  offset="1" style="stop-color:#5DD0EF"/>
</linearGradient>
<path class="st19" d="M-23,12.9c-0.2-0.4-0.6-0.6-1-0.6h-8.2l6-10.3c0.2-0.3,0.2-0.7,0-1.1c-0.2-0.3-0.5-0.5-0.9-0.5h-12.2
	c-0.5,0-0.9,0.3-1,0.7l-5.7,17.1c-0.1,0.3-0.1,0.7,0.1,1c0.2,0.3,0.5,0.4,0.9,0.4h8.6l-4.6,15.8c-0.1,0.5,0.1,1,0.6,1.3
	c0.2,0.1,0.3,0.1,0.5,0.1c0.3,0,0.7-0.2,0.9-0.5L-23.1,14C-22.9,13.6-22.8,13.2-23,12.9z M-37.1,29.8l3.2-11c0.1-0.3,0-0.7-0.2-0.9
	s-0.5-0.4-0.9-0.4h-8.5l5-14.9h9.5l-6,10.3c-0.2,0.3-0.2,0.7,0,1.1s0.5,0.5,0.9,0.5h8L-37.1,29.8z"/>
<g>
	<g>
		<linearGradient id="SVGID_21_" gradientUnits="userSpaceOnUse" x1="20.3336" y1="30.364" x2="20.3336" y2="3.1778">
			<stop  offset="0" style="stop-color:#D7FFFF"/>
			<stop  offset="1" style="stop-color:#5DD0EF"/>
		</linearGradient>
		<path class="st20" d="M28.6,23.5c-0.1,0.1-0.2,0.2-0.3,0.3C28.4,23.8,28.5,23.7,28.6,23.5c-0.6,0.8-1.3,1.5-2.1,2.1
			c0.1-0.1,0.2-0.2,0.3-0.2c-0.7,0.6-1.5,1-2.3,1.4c0.1-0.1,0.2-0.1,0.4-0.2c-0.8,0.3-1.6,0.6-2.5,0.7c0.1,0,0.3,0,0.4-0.1
			c-0.9,0.1-1.7,0.1-2.6,0c0.1,0,0.3,0,0.4,0.1c-0.9-0.1-1.7-0.3-2.5-0.7c0.1,0.1,0.2,0.1,0.4,0.2c-0.8-0.3-1.6-0.8-2.3-1.3
			c0.1,0.1,0.2,0.2,0.3,0.2c-0.8-0.6-1.5-1.3-2.1-2.1c0.1,0.1,0.2,0.2,0.2,0.3c-0.6-0.8-1.2-1.8-1.6-2.7c0.1,0.1,0.1,0.2,0.2,0.4
			c-0.4-1.1-0.7-2.2-0.9-3.3c0,0.1,0,0.3,0.1,0.4c-0.2-1.2-0.2-2.4,0-3.6c0,0.1,0,0.3-0.1,0.4c0.2-1.1,0.5-2.3,0.9-3.3
			c-0.1,0.1-0.1,0.2-0.2,0.4c0.4-1,0.9-1.9,1.6-2.7c-0.1,0.1-0.2,0.2-0.2,0.3c0.6-0.8,1.3-1.5,2.1-2.1c-0.1,0.1-0.2,0.2-0.3,0.2
			c0.7-0.5,1.5-1,2.3-1.3c-0.1,0.1-0.2,0.1-0.4,0.2c0.8-0.3,1.6-0.6,2.5-0.7c-0.1,0-0.3,0-0.4,0.1c0.9-0.1,1.7-0.1,2.6,0
			c-0.1,0-0.3,0-0.4-0.1c0.9,0.1,1.7,0.3,2.5,0.7c-0.1-0.1-0.2-0.1-0.4-0.2c0.8,0.4,1.6,0.8,2.3,1.4c-0.1-0.1-0.2-0.2-0.3-0.2
			c0.8,0.6,1.4,1.3,2,2c-0.1-0.1-0.2-0.2-0.2-0.3c0.1,0.1,0.2,0.2,0.3,0.3c0.2,0.3,0.5,0.6,0.9,0.7c0.4,0.1,0.9,0.1,1.2-0.2
			c0.3-0.2,0.6-0.5,0.7-0.9c0.1-0.4,0.1-0.9-0.2-1.2c-1.3-1.8-3-3.4-5-4.3c-0.6-0.2-1.1-0.5-1.7-0.6c-0.6-0.2-1.2-0.3-1.8-0.3
			c-1-0.1-2.1-0.1-3.1,0.1c-1.8,0.3-3.6,1.1-5.1,2.3C13,6.8,11.7,8.3,10.8,10c-1,1.9-1.5,3.9-1.6,6.1c-0.1,1.1,0,2.2,0.2,3.3
			c0.1,0.9,0.4,1.8,0.7,2.7c0.7,1.9,1.8,3.6,3.2,5c1.4,1.3,3.1,2.4,5,2.9c2,0.6,4.2,0.6,6.2,0c2.1-0.6,4.1-1.8,5.6-3.4
			c0.4-0.4,0.8-0.9,1.1-1.4c0.2-0.3,0.3-0.8,0.2-1.2c-0.1-0.4-0.4-0.7-0.7-0.9c-0.4-0.2-0.8-0.3-1.2-0.2c-0.1,0.1-0.2,0.1-0.4,0.2
			C28.9,23.1,28.7,23.3,28.6,23.5L28.6,23.5z"/>
	</g>
</g>
<g>
	<g>
		<path class="st21" d="M5.3,15.1c0.6,0,1.1,0,1.7,0c1.4,0,2.7,0,4.1,0c1.6,0,3.3,0,4.9,0c1.4,0,2.8,0,4.2,0c0.7,0,1.4,0,2.1,0
			c0,0,0,0,0,0c0.4,0,0.8-0.2,1.1-0.4c0.3-0.3,0.5-0.7,0.4-1.1c0-0.4-0.1-0.8-0.4-1.1c-0.3-0.3-0.7-0.4-1.1-0.4c-0.6,0-1.1,0-1.7,0
			c-1.4,0-2.7,0-4.1,0c-1.6,0-3.3,0-4.9,0c-1.4,0-2.8,0-4.2,0c-0.7,0-1.4,0-2.1,0c0,0,0,0,0,0c-0.4,0-0.8,0.2-1.1,0.4
			c-0.3,0.3-0.5,0.7-0.4,1.1c0,0.4,0.1,0.8,0.4,1.1C4.5,15,4.8,15.1,5.3,15.1L5.3,15.1z"/>
	</g>
</g>
<g>
	<g>
		<path class="st22" d="M22.3,18.4c-0.6,0-1.1,0-1.7,0c-1.4,0-2.7,0-4.1,0c-1.6,0-3.3,0-4.9,0c-1.4,0-2.8,0-4.2,0
			c-0.7,0-1.4,0-2.1,0c0,0,0,0,0,0c-0.4,0-0.8,0.2-1.1,0.4c-0.3,0.3-0.5,0.7-0.4,1.1c0,0.4,0.1,0.8,0.4,1.1c0.3,0.3,0.7,0.4,1.1,0.4
			c0.6,0,1.1,0,1.7,0c1.4,0,2.7,0,4.1,0c1.6,0,3.3,0,4.9,0c1.4,0,2.8,0,4.2,0c0.7,0,1.4,0,2.1,0c0,0,0,0,0,0c0.4,0,0.8-0.2,1.1-0.4
			c0.3-0.3,0.5-0.7,0.4-1.1c0-0.4-0.1-0.8-0.4-1.1C23.1,18.6,22.7,18.4,22.3,18.4L22.3,18.4z"/>
	</g>
</g>
<g>
	<linearGradient id="SVGID_22_" gradientUnits="userSpaceOnUse" x1="81.9889" y1="22.0149" x2="81.9889" y2="11.409">
		<stop  offset="0" style="stop-color:#D7FFFF"/>
		<stop  offset="1" style="stop-color:#5DD0EF"/>
	</linearGradient>
	<path class="st23" d="M84.9,20.4c0,0.5,0,1,0,1.5c-1.2,0.4-3.5-0.4-4.7-1.9c-1.4-1.7-1.5-4.2-0.3-6.1c1.2-1.9,3.5-2.7,5.1-2.4
		c0,0.5,0,1,0,1.5c-1.2-0.1-2.3,0.2-3.2,1.1c-0.5,0.5-0.9,1.2-0.9,1.8c1,0,2,0,3,0c0,0.5,0,1,0,1.6c-1,0-2,0-3,0
		C81,19.3,82.6,20.4,84.9,20.4z"/>
	<linearGradient id="SVGID_23_" gradientUnits="userSpaceOnUse" x1="72.9206" y1="22.0128" x2="72.9206" y2="11.4083">
		<stop  offset="0" style="stop-color:#D7FFFF"/>
		<stop  offset="1" style="stop-color:#5DD0EF"/>
	</linearGradient>
	<path class="st24" d="M75.9,11.5c0,0.5,0,1,0,1.5c-1.4-0.1-2.5,0.3-3.4,1.3c-0.6,0.8-0.9,1.6-0.9,2.6c0.1,1.8,1.6,3.7,4.3,3.5
		c0,0.5,0,1,0,1.5c-1.5,0.3-3.7-0.4-5-2.3c-1.2-1.8-1.2-4.2,0-6C72.2,11.9,74.4,11.2,75.9,11.5z"/>
</g>
<linearGradient id="SVGID_24_" gradientUnits="userSpaceOnUse" x1="77.4455" y1="33.4232" x2="77.4455" y2="0">
	<stop  offset="0" style="stop-color:#D7FFFF"/>
	<stop  offset="1" style="stop-color:#5DD0EF"/>
</linearGradient>
<path class="st25" d="M76.7,32l-2.8,1.1c-2.1,0.9-4.6-0.1-5.5-2.3L67.2,28c-0.2-0.5-0.6-0.9-1.1-1.1l-2.8-1.2
	c-2.1-0.9-3.1-3.4-2.3-5.5l1.1-2.8c0.2-0.5,0.2-1,0-1.5L61,13.1c-0.9-2.1,0.1-4.6,2.3-5.5l2.8-1.2c0.5-0.2,0.9-0.6,1.1-1.1l1.2-2.8
	c0.9-2.1,3.4-3.1,5.5-2.3l2.8,1.1c0.5,0.2,1,0.2,1.5,0L81,0.3c2.1-0.9,4.6,0.1,5.5,2.3l1.2,2.8c0.2,0.5,0.6,0.9,1.1,1.1l2.8,1.2
	c2.1,0.9,3.1,3.4,2.3,5.5L92.7,16c-0.2,0.5-0.2,1,0,1.5l1.1,2.8c0.9,2.1-0.1,4.6-2.3,5.5L88.8,27c-0.5,0.2-0.9,0.6-1.1,1.1l-1.2,2.8
	C85.6,33,83.2,34,81,33.1L78.2,32C77.7,31.8,77.2,31.8,76.7,32z M79,29.9l2.8,1.1c1,0.4,2.2-0.1,2.6-1.1l1.2-2.8
	c0.4-1,1.2-1.8,2.3-2.3l2.8-1.2c1-0.4,1.5-1.6,1.1-2.6l-1.1-2.8c-0.4-1-0.4-2.2,0-3.2l1.1-2.8c0.4-1-0.1-2.2-1.1-2.6l-2.8-1.2
	c-1-0.4-1.8-1.2-2.3-2.3l-1.2-2.8c-0.4-1-1.6-1.5-2.6-1.1L79,3.5c-1,0.4-2.2,0.4-3.2,0L73,2.4c-1-0.4-2.2,0.1-2.6,1.1l-1.2,2.8
	c-0.4,1-1.2,1.8-2.3,2.3l-2.8,1.2c-1,0.4-1.5,1.6-1.1,2.6l1.1,2.8c0.4,1,0.4,2.2,0,3.2l-1.1,2.8c-0.4,1,0.1,2.2,1.1,2.6l2.8,1.2
	c1,0.4,1.8,1.2,2.3,2.3l1.2,2.8c0.4,1,1.6,1.5,2.6,1.1l2.8-1.1C76.9,29.5,78,29.5,79,29.9z"/>
<linearGradient id="SVGID_25_" gradientUnits="userSpaceOnUse" x1="-38.9699" y1="-36.8606" x2="-38.9699" y2="-133.7833">
	<stop  offset="0" style="stop-color:#D7FFFF"/>
	<stop  offset="1" style="stop-color:#5DD0EF"/>
</linearGradient>
<rect x="-107.1" y="-133.8" class="st26" width="136.4" height="96.9"/>
<linearGradient id="SVGID_26_" gradientUnits="userSpaceOnUse" x1="-260.2889" y1="34.4592" x2="-260.2889" y2="13.4606">
	<stop  offset="0" style="stop-color:#D7FFFF"/>
	<stop  offset="1" style="stop-color:#5DD0EF"/>
</linearGradient>
<path class="st27" d="M-269.3,13.5c-1.7,0-3,1.3-3,3v15c0,1.7,1.3,3,3,3h18c1.7,0,3-1.3,3-3v-15c0-1.7-1.3-3-3-3h-15L-269.3,13.5z
	 M-251.6,32.4H-269c-0.6,0-1.1-0.5-1.1-1.1V16.6c0-0.6,0.5-1.1,1.1-1.1h17.5c0.6,0,1.1,0.5,1.1,1.1v14.7
	C-250.5,31.9-251,32.4-251.6,32.4z"/>
</svg>
