<?xml version="1.0" encoding="utf-8"?>
<!-- Generator: Adobe Illustrator 21.0.2, SVG Export Plug-In . SVG Version: 6.00 Build 0)  -->
<svg version="1.1" id="Calque_1" xmlns="http://www.w3.org/2000/svg" xmlns:xlink="http://www.w3.org/1999/xlink" x="0px" y="0px"
	 viewBox="0 0 28.7 38.3" style="enable-background:new 0 0 28.7 38.3;" xml:space="preserve">
<style type="text/css">
	.st0{fill:url(#SVGID_1_);}
	.st1{fill:url(#SVGID_2_);}
	.st2{fill:url(#SVGID_3_);}
	.st3{fill:none;stroke:url(#SVGID_4_);stroke-width:1.5;stroke-miterlimit:10;}
	.st4{fill:url(#SVGID_5_);}
	.st5{fill:url(#SVGID_6_);}
	.st6{fill:url(#SVGID_7_);}
	.st7{fill:url(#SVGID_8_);}
	.st8{fill:url(#SVGID_9_);}
	.st9{fill:url(#SVGID_10_);}
	.st10{fill:url(#SVGID_11_);}
	.st11{fill:url(#SVGID_12_);}
	.st12{fill:url(#SVGID_13_);}
	.st13{fill:url(#SVGID_14_);}
	.st14{fill:url(#SVGID_15_);}
	.st15{fill:url(#SVGID_16_);}
	.st16{fill:url(#SVGID_17_);}
	.st17{fill:url(#SVGID_18_);}
	.st18{fill:url(#SVGID_19_);}
	.st19{fill:url(#SVGID_20_);}
	.st20{fill:url(#SVGID_21_);}
	.st21{fill:#87DFF3;}
	.st22{fill:#B4F1F9;}
	.st23{fill:url(#SVGID_22_);}
	.st24{fill:url(#SVGID_23_);}
	.st25{fill:url(#SVGID_24_);}
	.st26{fill:url(#SVGID_25_);}
	.st27{fill:url(#SVGID_26_);}
</style>
<linearGradient id="SVGID_1_" gradientUnits="userSpaceOnUse" x1="-99.0144" y1="30.2533" x2="-99.0144" y2="-2.3653">
	<stop  offset="0" style="stop-color:#D7FFFF"/>
	<stop  offset="1" style="stop-color:#5DD0EF"/>
</linearGradient>
<path class="st0" d="M-85.7,10.9c0-7.5-6.3-13.6-13.9-13.2c-6.8,0.3-12.4,5.9-12.7,12.6c-0.1,3.4,1,6.7,3.2,9.2
	c2.1,2.4,3.2,5.7,3.2,9.2v0.6c0,0.6,0.4,1,1,1h11.7c0.6,0,1-0.4,1-1v-0.7c0-3.3,1.2-6.5,3.5-9.4C-86.8,16.9-85.7,14-85.7,10.9z
	 M-94.1,28.3h-9.7c-0.1-3.8-1.4-7.4-3.7-10.1c-1.9-2.2-2.8-5-2.7-7.8c0.3-5.8,5-10.5,10.7-10.8c6.5-0.3,11.8,4.9,11.8,11.3
	c0,2.6-0.9,5-2.5,7.1C-92.7,21.1-94.1,24.7-94.1,28.3z"/>
<linearGradient id="SVGID_2_" gradientUnits="userSpaceOnUse" x1="-98.8612" y1="34.5533" x2="-98.8612" y2="32.5533">
	<stop  offset="0" style="stop-color:#D7FFFF"/>
	<stop  offset="1" style="stop-color:#5DD0EF"/>
</linearGradient>
<path class="st1" d="M-93.2,32.6h-11.3c-0.6,0-1,0.4-1,1s0.4,1,1,1h11.3c0.6,0,1-0.4,1-1S-92.6,32.6-93.2,32.6z"/>
<linearGradient id="SVGID_3_" gradientUnits="userSpaceOnUse" x1="-98.8612" y1="38.2533" x2="-98.8612" y2="36.2533">
	<stop  offset="0" style="stop-color:#D7FFFF"/>
	<stop  offset="1" style="stop-color:#5DD0EF"/>
</linearGradient>
<path class="st2" d="M-95.2,36.3h-7.3c-0.6,0-1,0.4-1,1s0.4,1,1,1h7.3c0.6,0,1-0.4,1-1S-94.6,36.3-95.2,36.3z"/>
<linearGradient id="SVGID_4_" gradientUnits="userSpaceOnUse" x1="-99.2148" y1="28.3258" x2="-99.2148" y2="8.9586">
	<stop  offset="0" style="stop-color:#D7FFFF"/>
	<stop  offset="1" style="stop-color:#5DD0EF"/>
</linearGradient>
<path class="st3" d="M-99.2,28.3c0.1-5.9,0-11.8-0.3-17.7c1.5,1.2,2.9,2.7,3.6,4.5c0.7,1.8,0.6,4-0.6,5.5c-0.9,1.2-2.3,1.9-3,3.2
	c-2.3-1.5-3.9-4.4-3.2-7c0.5-2.1,2.2-3.8,2.7-5.8"/>
<linearGradient id="SVGID_5_" gradientUnits="userSpaceOnUse" x1="-41.4787" y1="27.7443" x2="-41.4787" y2="18.7452">
	<stop  offset="0" style="stop-color:#D7FFFF"/>
	<stop  offset="1" style="stop-color:#5DD0EF"/>
</linearGradient>
<path class="st4" d="M-43,24.3v1.9c0,0.8,0.7,1.5,1.5,1.5c0.8,0,1.5-0.7,1.5-1.5v-1.9c0.9-0.5,1.5-1.5,1.5-2.6c0-1.7-1.3-3-3-3
	c-1.7,0-3,1.3-3,3C-44.5,22.9-43.9,23.8-43,24.3z"/>
<g>
	<g>
		<linearGradient id="SVGID_6_" gradientUnits="userSpaceOnUse" x1="-41.0204" y1="14.612" x2="-41.0204" y2="-1.8853">
			<stop  offset="0" style="stop-color:#D7FFFF"/>
			<stop  offset="1" style="stop-color:#5DD0EF"/>
		</linearGradient>
		<path class="st5" d="M-34,8.6C-34,8.6-34,8.6-34,8.6l0-1.5c-0.1-4.7-3.7-7-7-7c-3.3,0-7,2.3-7,7v6c0,0.8-0.1,1.5-0.9,1.5
			c-0.8,0-1.1-0.7-1.1-1.5V7.5c0-4.8,3.6-9,8.4-9.3c5.2-0.3,9.6,3.8,9.6,9v1.4c0,0,0,0,0,0L-34,8.6z"/>
	</g>
</g>
<linearGradient id="SVGID_7_" gradientUnits="userSpaceOnUse" x1="14.7541" y1="36.0379" x2="14.7541" y2="2.8776">
	<stop  offset="0" style="stop-color:#D7FFFF"/>
	<stop  offset="1" style="stop-color:#5DD0EF"/>
</linearGradient>
<path class="st6" d="M26,12.1c0-0.2-0.1-0.4-0.2-0.5l-7.4-8.5c-0.1-0.1-0.3-0.2-0.5-0.2H5.8C4,2.9,3.6,3.5,3.6,5.5v27.9
	c0,2,0.4,2.6,2.2,2.6h17.9c1.8,0,2.2-0.6,2.2-2.6V12.1z M18.1,5.8l5.4,6.2l-4,0c-0.5,0-1.3-0.8-1.3-1.4L18.1,5.8z M22.7,33.6H6.8
	c-1.1,0-1,0-1-1.2V7.5c0-1.2-0.1-2.2,0.9-2.2h9.7v5.3c0,1.4,1.9,3.1,3.1,3.1h4.3v18.7C23.8,33.6,23.8,33.6,22.7,33.6z"/>
<linearGradient id="SVGID_8_" gradientUnits="userSpaceOnUse" x1="16.6974" y1="20.2738" x2="16.6974" y2="18.8199">
	<stop  offset="0" style="stop-color:#D7FFFF"/>
	<stop  offset="1" style="stop-color:#5DD0EF"/>
</linearGradient>
<path class="st7" d="M21,18.8h-8.7c-0.4,0-0.6,0.3-0.6,0.7s0.3,0.7,0.6,0.7H21c0.4,0,0.6-0.3,0.6-0.7S21.4,18.8,21,18.8z"/>
<linearGradient id="SVGID_9_" gradientUnits="userSpaceOnUse" x1="8.4727" y1="20.6373" x2="8.4727" y2="18.4562">
	<stop  offset="0" style="stop-color:#D7FFFF"/>
	<stop  offset="1" style="stop-color:#5DD0EF"/>
</linearGradient>
<path class="st8" d="M8.5,18.5c-0.5,0-1,0.5-1,1.1s0.4,1.1,1,1.1l0,0h0c0.5,0,1-0.5,1-1.1C9.4,18.9,9,18.5,8.5,18.5
	C8.5,18.5,8.5,18.5,8.5,18.5z"/>
<linearGradient id="SVGID_10_" gradientUnits="userSpaceOnUse" x1="16.6978" y1="24.999" x2="16.6978" y2="23.5451">
	<stop  offset="0" style="stop-color:#D7FFFF"/>
	<stop  offset="1" style="stop-color:#5DD0EF"/>
</linearGradient>
<path class="st9" d="M21,23.5h-8.7c-0.4,0-0.6,0.3-0.6,0.7c0,0.4,0.3,0.7,0.6,0.7H21c0.4,0,0.6-0.3,0.6-0.7S21.4,23.5,21,23.5z"/>
<linearGradient id="SVGID_11_" gradientUnits="userSpaceOnUse" x1="8.4733" y1="25.3625" x2="8.4733" y2="23.1815">
	<stop  offset="0" style="stop-color:#D7FFFF"/>
	<stop  offset="1" style="stop-color:#5DD0EF"/>
</linearGradient>
<path class="st10" d="M8.5,23.2c-0.5,0-1,0.5-1,1.1c0,0.6,0.4,1.1,1,1.1h0c0.5,0,1-0.5,1-1.1C9.4,23.7,9,23.2,8.5,23.2
	C8.5,23.2,8.5,23.2,8.5,23.2z"/>
<linearGradient id="SVGID_12_" gradientUnits="userSpaceOnUse" x1="16.6974" y1="29.7243" x2="16.6974" y2="28.2704">
	<stop  offset="0" style="stop-color:#D7FFFF"/>
	<stop  offset="1" style="stop-color:#5DD0EF"/>
</linearGradient>
<path class="st11" d="M21,28.3h-8.7c-0.4,0-0.6,0.3-0.6,0.7s0.3,0.7,0.6,0.7H21c0.4,0,0.6-0.3,0.6-0.7S21.4,28.3,21,28.3z"/>
<linearGradient id="SVGID_13_" gradientUnits="userSpaceOnUse" x1="8.4727" y1="30.0878" x2="8.4727" y2="27.9067">
	<stop  offset="0" style="stop-color:#D7FFFF"/>
	<stop  offset="1" style="stop-color:#5DD0EF"/>
</linearGradient>
<path class="st12" d="M8.5,27.9c-0.5,0-1,0.5-1,1.1s0.4,1.1,1,1.1l0,0h0c0.5,0,1-0.5,1-1.1C9.4,28.4,9,27.9,8.5,27.9
	C8.5,27.9,8.5,27.9,8.5,27.9z"/>
<linearGradient id="SVGID_14_" gradientUnits="userSpaceOnUse" x1="70.1362" y1="36.0379" x2="70.1362" y2="-5.0725">
	<stop  offset="0" style="stop-color:#D7FFFF"/>
	<stop  offset="1" style="stop-color:#5DD0EF"/>
</linearGradient>
<path class="st13" d="M81.4,8.2l-6.7-4.3c0.4-0.9,0.5-1.8,0.5-2.8c0-3.4-2.3-6.2-5.1-6.2c-2.8,0-5.1,2.8-5.1,6.2
	c0,1,0.2,1.9,0.5,2.8L59,8.2c-0.2,0.2-0.4,0.4-0.4,0.7v26.3c0,0.4,0.4,0.8,0.8,0.8h21.5c0.4,0,0.8-0.4,0.8-0.8V8.9
	C81.7,8.5,81.6,8.4,81.4,8.2z M67.1,1c0-2.3,1.4-4.1,3.2-4.1c1.8,0,3.2,1.9,3.2,4.1c0,0.6-0.1,1.2-0.3,1.7l-2.5-1.6
	c-0.2-0.1-0.5-0.1-0.8,0l-2.5,1.6C67.2,2.2,67.1,1.6,67.1,1z M79.7,33.7H60.8V9.8l6.5-4.2l0,0l0,0l3-2l2.3,1.5
	c-0.2,0.3-0.5,0.5-0.7,0.7c-0.4-0.3-1-0.5-1.5-0.5c-0.8,0-1.4,0.4-1.9,0.9c-0.1,0.1-0.1,0.1-0.2,0.2c-0.3,0.4-0.5,0.9-0.5,1.5
	c0,1.4,1.1,2.6,2.6,2.6s2.6-1.1,2.6-2.6c0-0.3-0.1-0.6-0.2-0.8c0.4-0.3,0.8-0.7,1.1-1.1l5.9,3.8L79.7,33.7L79.7,33.7z M71.3,7.2
	c0,0.6-0.5,1.1-1.1,1.1s-1.1-0.5-1.1-1.1c0-0.1,0-0.1,0-0.2c0.3,0.1,0.7,0.2,1.1,0.2s0.7-0.1,1.1-0.2C71.3,7.2,71.3,7.2,71.3,7.2z"
	/>
<g>
	<linearGradient id="SVGID_15_" gradientUnits="userSpaceOnUse" x1="69.9927" y1="27.3288" x2="69.9927" y2="17.5612">
		<stop  offset="0" style="stop-color:#D7FFFF"/>
		<stop  offset="1" style="stop-color:#5DD0EF"/>
	</linearGradient>
	<path class="st14" d="M64.4,20c0-1.4,1-2.5,2.5-2.5c1.5,0,2.5,1.1,2.5,2.5c0,1.4-1,2.5-2.5,2.5S64.4,21.4,64.4,20z M72.4,17.7h1.8
		l-6.7,9.5h-1.8L72.4,17.7z M67.7,20c0-0.6-0.3-1-0.8-1c-0.5,0-0.8,0.3-0.8,1c0,0.6,0.3,1,0.8,1C67.4,21,67.7,20.7,67.7,20z
		 M70.6,24.9c0-1.4,1-2.5,2.5-2.5c1.5,0,2.5,1.1,2.5,2.5c0,1.4-1,2.5-2.5,2.5C71.6,27.3,70.6,26.2,70.6,24.9z M73.9,24.9
		c0-0.6-0.4-1-0.8-1c-0.5,0-0.8,0.3-0.8,1c0,0.6,0.3,1,0.8,1C73.5,25.8,73.9,25.5,73.9,24.9z"/>
</g>
<linearGradient id="SVGID_16_" gradientUnits="userSpaceOnUse" x1="131.7857" y1="27.9819" x2="131.7857" y2="-2.728484e-12">
	<stop  offset="0" style="stop-color:#D7FFFF"/>
	<stop  offset="1" style="stop-color:#5DD0EF"/>
</linearGradient>
<path class="st15" d="M131.8,28c-7.7,0-14-6.3-14-14c0-7,5.3-13,12.2-13.9c0.4-0.1,0.8,0.2,0.9,0.5c0.2,0.4,0.1,0.8-0.2,1.1
	c-2.1,1.8-3.4,4.5-3.4,7.3c0,5.3,4.3,9.5,9.5,9.5c2.8,0,5.4-1.2,7.3-3.4c0.3-0.3,0.7-0.4,1.1-0.2c0.4,0.2,0.6,0.5,0.5,0.9
	C144.9,22.7,138.9,28,131.8,28z M127.5,2.5c-4.7,1.8-7.9,6.3-7.9,11.4c0,6.7,5.5,12.2,12.2,12.2c5.2,0,9.7-3.3,11.4-7.9
	c-1.9,1.3-4.1,2-6.4,2c-6.3,0-11.4-5.1-11.4-11.4C125.6,6.6,126.3,4.4,127.5,2.5z"/>
<linearGradient id="SVGID_17_" gradientUnits="userSpaceOnUse" x1="137.7588" y1="11.2733" x2="137.7588" y2="5.0596">
	<stop  offset="0" style="stop-color:#D7FFFF"/>
	<stop  offset="1" style="stop-color:#5DD0EF"/>
</linearGradient>
<path class="st16" d="M137.9,5.1l0.9,1.9l2.1,0.3c0.1,0,0.1,0.1,0.1,0.2l-1.6,1.5l0.3,2c0,0.1-0.1,0.3-0.3,0.2l-1.8-1l-1.8,1
	c-0.1,0.1-0.3,0-0.3-0.2l0.3-2l-1.5-1.4c-0.1-0.1,0-0.3,0.1-0.3l2-0.3l0.9-1.9C137.6,5,137.8,5,137.9,5.1z"/>
<linearGradient id="SVGID_18_" gradientUnits="userSpaceOnUse" x1="110.0973" y1="17.4781" x2="110.0973" y2="11.1054">
	<stop  offset="0" style="stop-color:#D7FFFF"/>
	<stop  offset="1" style="stop-color:#5DD0EF"/>
</linearGradient>
<path class="st17" d="M110.2,11.2l1,2c0,0,0,0,0.1,0l2.2,0.3c0.1,0,0.1,0.1,0,0.1l-1.6,1.5c0,0,0,0,0,0.1l0.4,2.2
	c0,0.1-0.1,0.1-0.1,0.1l-1.9-1c0,0-0.1,0-0.1,0l-1.9,1c-0.1,0-0.1,0-0.1-0.1l0.4-2.2c0,0,0-0.1,0-0.1l-1.6-1.5c0,0,0-0.1,0-0.1
	l2.2-0.3c0,0,0,0,0.1,0l1-2C110.1,11.1,110.1,11.1,110.2,11.2z"/>
<linearGradient id="SVGID_19_" gradientUnits="userSpaceOnUse" x1="119.407" y1="34.9626" x2="119.407" y2="25.1581">
	<stop  offset="0" style="stop-color:#D7FFFF"/>
	<stop  offset="1" style="stop-color:#5DD0EF"/>
</linearGradient>
<path class="st18" d="M119.5,25.2l1.5,3.1c0,0,0,0,0.1,0l3.4,0.5c0.1,0,0.1,0.1,0,0.1l-2.5,2.4c0,0,0,0,0,0.1l0.6,3.4
	c0,0.1-0.1,0.1-0.1,0.1l-3.1-1.6c0,0-0.1,0-0.1,0l-3.1,1.6c-0.1,0-0.1,0-0.1-0.1l0.6-3.4c0,0,0-0.1,0-0.1l-2.5-2.4c0,0,0-0.1,0-0.1
	l3.4-0.5c0,0,0,0,0.1,0l1.5-3.1C119.4,25.1,119.4,25.1,119.5,25.2z"/>
<linearGradient id="SVGID_20_" gradientUnits="userSpaceOnUse" x1="184.374" y1="36.0378" x2="184.374" y2="-0.3323">
	<stop  offset="0" style="stop-color:#D7FFFF"/>
	<stop  offset="1" style="stop-color:#5DD0EF"/>
</linearGradient>
<path class="st19" d="M195.8,12.1c-0.2-0.4-0.6-0.6-1-0.6h-8.2l6-10.3c0.2-0.3,0.2-0.7,0-1.1s-0.5-0.5-0.9-0.5h-12.2
	c-0.5,0-0.9,0.3-1,0.7l-5.7,17.1c-0.1,0.3-0.1,0.7,0.1,1s0.5,0.4,0.9,0.4h8.6l-4.6,15.8c-0.1,0.5,0.1,1,0.6,1.3
	c0.2,0.1,0.3,0.1,0.5,0.1c0.3,0,0.7-0.2,0.9-0.5l15.9-22.3C196,12.9,196,12.5,195.8,12.1z M181.8,29.1l3.2-11c0.1-0.3,0-0.7-0.2-0.9
	c-0.2-0.3-0.5-0.4-0.9-0.4h-8.5l5-14.9h9.5l-6,10.3c-0.2,0.3-0.2,0.7,0,1.1c0.2,0.3,0.5,0.5,0.9,0.5h8L181.8,29.1z"/>
<g>
	<g>
		<linearGradient id="SVGID_21_" gradientUnits="userSpaceOnUse" x1="239.1438" y1="29.649" x2="239.1438" y2="2.4629">
			<stop  offset="0" style="stop-color:#D7FFFF"/>
			<stop  offset="1" style="stop-color:#5DD0EF"/>
		</linearGradient>
		<path class="st20" d="M247.4,22.8c-0.1,0.1-0.2,0.2-0.3,0.3C247.2,23.1,247.3,23,247.4,22.8c-0.6,0.8-1.3,1.5-2.1,2.1
			c0.1-0.1,0.2-0.2,0.3-0.2c-0.7,0.6-1.5,1-2.3,1.4c0.1-0.1,0.2-0.1,0.4-0.2c-0.8,0.3-1.6,0.6-2.5,0.7c0.1,0,0.3,0,0.4-0.1
			c-0.9,0.1-1.7,0.1-2.6,0c0.1,0,0.3,0,0.4,0.1c-0.9-0.1-1.7-0.3-2.5-0.7c0.1,0.1,0.2,0.1,0.4,0.2c-0.8-0.3-1.6-0.8-2.3-1.3
			c0.1,0.1,0.2,0.2,0.3,0.2c-0.8-0.6-1.5-1.3-2.1-2.1c0.1,0.1,0.2,0.2,0.2,0.3c-0.6-0.8-1.2-1.8-1.6-2.7c0.1,0.1,0.1,0.2,0.2,0.4
			c-0.4-1.1-0.7-2.2-0.9-3.3c0,0.1,0,0.3,0.1,0.4c-0.2-1.2-0.2-2.4,0-3.6c0,0.1,0,0.3-0.1,0.4c0.2-1.1,0.5-2.3,0.9-3.3
			c-0.1,0.1-0.1,0.2-0.2,0.4c0.4-1,0.9-1.9,1.6-2.7c-0.1,0.1-0.2,0.2-0.2,0.3c0.6-0.8,1.3-1.5,2.1-2.1c-0.1,0.1-0.2,0.2-0.3,0.2
			c0.7-0.5,1.5-1,2.3-1.3c-0.1,0.1-0.2,0.1-0.4,0.2c0.8-0.3,1.6-0.6,2.5-0.7c-0.1,0-0.3,0-0.4,0.1c0.9-0.1,1.7-0.1,2.6,0
			c-0.1,0-0.3,0-0.4-0.1c0.9,0.1,1.7,0.3,2.5,0.7c-0.1-0.1-0.2-0.1-0.4-0.2c0.8,0.4,1.6,0.8,2.3,1.4c-0.1-0.1-0.2-0.2-0.3-0.2
			c0.8,0.6,1.4,1.3,2,2c-0.1-0.1-0.2-0.2-0.2-0.3c0.1,0.1,0.2,0.2,0.3,0.3c0.2,0.3,0.5,0.6,0.9,0.7c0.4,0.1,0.9,0.1,1.2-0.2
			c0.3-0.2,0.6-0.5,0.7-0.9c0.1-0.4,0.1-0.9-0.2-1.2c-1.3-1.8-3-3.4-5-4.3c-0.6-0.2-1.1-0.5-1.7-0.6c-0.6-0.2-1.2-0.3-1.8-0.3
			c-1-0.1-2.1-0.1-3.1,0.1c-1.8,0.3-3.6,1.1-5.1,2.3c-1.5,1.2-2.8,2.7-3.7,4.4c-1,1.9-1.5,3.9-1.6,6.1c-0.1,1.1,0,2.2,0.2,3.3
			c0.1,0.9,0.4,1.8,0.7,2.7c0.7,1.9,1.8,3.6,3.2,5c1.4,1.3,3.1,2.4,5,2.9c2,0.6,4.2,0.6,6.2,0c2.1-0.6,4.1-1.8,5.6-3.4
			c0.4-0.4,0.8-0.9,1.1-1.4c0.2-0.3,0.3-0.8,0.2-1.2c-0.1-0.4-0.4-0.7-0.7-0.9c-0.4-0.2-0.8-0.3-1.2-0.2c-0.1,0.1-0.2,0.1-0.4,0.2
			C247.7,22.4,247.5,22.6,247.4,22.8L247.4,22.8z"/>
	</g>
</g>
<g>
	<g>
		<path class="st21" d="M224.1,14.4c0.6,0,1.1,0,1.7,0c1.4,0,2.7,0,4.1,0c1.6,0,3.3,0,4.9,0c1.4,0,2.8,0,4.2,0c0.7,0,1.4,0,2.1,0
			c0,0,0,0,0,0c0.4,0,0.8-0.2,1.1-0.4c0.3-0.3,0.5-0.7,0.4-1.1c0-0.4-0.1-0.8-0.4-1.1c-0.3-0.3-0.7-0.4-1.1-0.4c-0.6,0-1.1,0-1.7,0
			c-1.4,0-2.7,0-4.1,0c-1.6,0-3.3,0-4.9,0c-1.4,0-2.8,0-4.2,0c-0.7,0-1.4,0-2.1,0c0,0,0,0,0,0c-0.4,0-0.8,0.2-1.1,0.4
			c-0.3,0.3-0.5,0.7-0.4,1.1c0,0.4,0.1,0.8,0.4,1.1C223.3,14.2,223.7,14.4,224.1,14.4L224.1,14.4z"/>
	</g>
</g>
<g>
	<g>
		<path class="st22" d="M241.1,17.7c-0.6,0-1.1,0-1.7,0c-1.4,0-2.7,0-4.1,0c-1.6,0-3.3,0-4.9,0c-1.4,0-2.8,0-4.2,0
			c-0.7,0-1.4,0-2.1,0c0,0,0,0,0,0c-0.4,0-0.8,0.2-1.1,0.4c-0.3,0.3-0.5,0.7-0.4,1.1c0,0.4,0.1,0.8,0.4,1.1c0.3,0.3,0.7,0.4,1.1,0.4
			c0.6,0,1.1,0,1.7,0c1.4,0,2.7,0,4.1,0c1.6,0,3.3,0,4.9,0c1.4,0,2.8,0,4.2,0c0.7,0,1.4,0,2.1,0c0,0,0,0,0,0c0.4,0,0.8-0.2,1.1-0.4
			c0.3-0.3,0.5-0.7,0.4-1.1c0-0.4-0.1-0.8-0.4-1.1C241.9,17.9,241.5,17.7,241.1,17.7L241.1,17.7z"/>
	</g>
</g>
<g>
	<linearGradient id="SVGID_22_" gradientUnits="userSpaceOnUse" x1="300.7991" y1="21.2999" x2="300.7991" y2="10.694">
		<stop  offset="0" style="stop-color:#D7FFFF"/>
		<stop  offset="1" style="stop-color:#5DD0EF"/>
	</linearGradient>
	<path class="st23" d="M303.7,19.7c0,0.5,0,1,0,1.5c-1.2,0.4-3.5-0.4-4.7-1.9c-1.4-1.7-1.5-4.2-0.3-6.1c1.2-1.9,3.5-2.7,5.1-2.4
		c0,0.5,0,1,0,1.5c-1.2-0.1-2.3,0.2-3.2,1.1c-0.5,0.5-0.9,1.2-0.9,1.8c1,0,2,0,3,0c0,0.5,0,1,0,1.6c-1,0-2,0-3,0
		C299.8,18.5,301.4,19.7,303.7,19.7z"/>
	<linearGradient id="SVGID_23_" gradientUnits="userSpaceOnUse" x1="291.7308" y1="21.2978" x2="291.7308" y2="10.6933">
		<stop  offset="0" style="stop-color:#D7FFFF"/>
		<stop  offset="1" style="stop-color:#5DD0EF"/>
	</linearGradient>
	<path class="st24" d="M294.7,10.8c0,0.5,0,1,0,1.5c-1.4-0.1-2.5,0.3-3.4,1.3c-0.6,0.8-0.9,1.6-0.9,2.6c0.1,1.8,1.6,3.7,4.3,3.5
		c0,0.5,0,1,0,1.5c-1.5,0.3-3.7-0.4-5-2.3c-1.2-1.8-1.2-4.2,0-6C291,11.2,293.2,10.5,294.7,10.8z"/>
</g>
<linearGradient id="SVGID_24_" gradientUnits="userSpaceOnUse" x1="296.2558" y1="32.7082" x2="296.2558" y2="-0.715">
	<stop  offset="0" style="stop-color:#D7FFFF"/>
	<stop  offset="1" style="stop-color:#5DD0EF"/>
</linearGradient>
<path class="st25" d="M295.5,31.3l-2.8,1.1c-2.1,0.9-4.6-0.1-5.5-2.3l-1.2-2.8c-0.2-0.5-0.6-0.9-1.1-1.1l-2.8-1.2
	c-2.1-0.9-3.1-3.4-2.3-5.5l1.1-2.8c0.2-0.5,0.2-1,0-1.5l-1.1-2.8c-0.9-2.1,0.1-4.6,2.3-5.5l2.8-1.2c0.5-0.2,0.9-0.6,1.1-1.1l1.2-2.8
	c0.9-2.1,3.4-3.1,5.5-2.3l2.8,1.1c0.5,0.2,1,0.2,1.5,0l2.8-1.1c2.1-0.9,4.6,0.1,5.5,2.3l1.2,2.8c0.2,0.5,0.6,0.9,1.1,1.1l2.8,1.2
	c2.1,0.9,3.1,3.4,2.3,5.5l-1.1,2.8c-0.2,0.5-0.2,1,0,1.5l1.1,2.8c0.9,2.1-0.1,4.6-2.3,5.5l-2.8,1.2c-0.5,0.2-0.9,0.6-1.1,1.1
	l-1.2,2.8c-0.9,2.1-3.4,3.1-5.5,2.3l-2.8-1.1C296.5,31.1,296,31.1,295.5,31.3z M297.8,29.2l2.8,1.1c1,0.4,2.2-0.1,2.6-1.1l1.2-2.8
	c0.4-1,1.2-1.8,2.2-2.3l2.8-1.2c1-0.4,1.5-1.6,1.1-2.6l-1.1-2.8c-0.4-1-0.4-2.2,0-3.2l1.1-2.8c0.4-1-0.1-2.2-1.1-2.6l-2.8-1.2
	c-1-0.4-1.8-1.2-2.2-2.3l-1.2-2.8c-0.4-1-1.6-1.5-2.6-1.1l-2.8,1.1c-1,0.4-2.2,0.4-3.2,0l-2.8-1.1c-1-0.4-2.2,0.1-2.6,1.1l-1.2,2.8
	c-0.4,1-1.2,1.8-2.2,2.3L283,9c-1,0.4-1.5,1.6-1.1,2.6l1.1,2.8c0.4,1,0.4,2.2,0,3.2l-1.1,2.8c-0.4,1,0.1,2.2,1.1,2.6l2.8,1.2
	c1,0.4,1.8,1.2,2.2,2.3l1.2,2.8c0.4,1,1.6,1.5,2.6,1.1l2.8-1.1C295.7,28.8,296.8,28.8,297.8,29.2z"/>
<linearGradient id="SVGID_25_" gradientUnits="userSpaceOnUse" x1="179.8404" y1="-37.5756" x2="179.8404" y2="-134.4983">
	<stop  offset="0" style="stop-color:#D7FFFF"/>
	<stop  offset="1" style="stop-color:#5DD0EF"/>
</linearGradient>
<rect x="111.7" y="-134.5" class="st26" width="136.4" height="96.9"/>
<linearGradient id="SVGID_26_" gradientUnits="userSpaceOnUse" x1="-41.4787" y1="33.7442" x2="-41.4787" y2="12.7456">
	<stop  offset="0" style="stop-color:#D7FFFF"/>
	<stop  offset="1" style="stop-color:#5DD0EF"/>
</linearGradient>
<path class="st27" d="M-50.5,12.7c-1.7,0-3,1.3-3,3v15c0,1.7,1.3,3,3,3h18c1.7,0,3-1.3,3-3v-15c0-1.7-1.3-3-3-3h-15L-50.5,12.7z
	 M-32.7,31.7h-17.5c-0.6,0-1.1-0.5-1.1-1.1V15.9c0-0.6,0.5-1.1,1.1-1.1h17.5c0.6,0,1.1,0.5,1.1,1.1v14.7
	C-31.7,31.2-32.2,31.7-32.7,31.7z"/>
</svg>
